<mxfile host="app.diagrams.net" agent="Mozilla/5.0 (X11; Linux x86_64) AppleWebKit/537.36 (KHTML, like Gecko) Chrome/139.0.0.0 Safari/537.36" version="28.1.1">
  <diagram name="Page-1" id="zWhXpKK_r-Z8M6l7Udmz">
    <mxGraphModel dx="1013" dy="594" grid="1" gridSize="10" guides="1" tooltips="1" connect="1" arrows="1" fold="1" page="1" pageScale="1" pageWidth="827" pageHeight="1169" math="0" shadow="0" adaptiveColors="simple">
      <root>
        <mxCell id="0" />
        <mxCell id="1" parent="0" />
        <mxCell id="XweZ4Oe21oGHiwXUeN7P-1" value="" style="rounded=0;whiteSpace=wrap;html=1;fillColor=none;" parent="1" vertex="1">
          <mxGeometry x="183" y="235" width="460" height="715" as="geometry" />
        </mxCell>
        <mxCell id="eplZzicgOQm__7bpvk1a-55" value="" style="group;movable=0;resizable=0;rotatable=0;deletable=0;editable=0;locked=1;connectable=0;" parent="1" vertex="1" connectable="0">
          <mxGeometry x="20" y="395" width="750" height="380" as="geometry" />
        </mxCell>
        <mxCell id="eplZzicgOQm__7bpvk1a-56" value="&lt;font face=&quot;Times New Roman&quot; style=&quot;font-size: 20px;&quot;&gt;&lt;b&gt;USB-Encoder Layout&lt;/b&gt;&lt;/font&gt;" style="text;html=1;align=center;verticalAlign=middle;whiteSpace=wrap;rounded=0;" parent="1" vertex="1">
          <mxGeometry x="260" y="50" width="306" height="70" as="geometry" />
        </mxCell>
        <mxCell id="XweZ4Oe21oGHiwXUeN7P-26" value="" style="group" parent="1" vertex="1" connectable="0">
          <mxGeometry x="223" y="320" width="90" height="40" as="geometry" />
        </mxCell>
        <mxCell id="XweZ4Oe21oGHiwXUeN7P-15" value="" style="endArrow=none;html=1;rounded=0;" parent="XweZ4Oe21oGHiwXUeN7P-26" edge="1">
          <mxGeometry width="50" height="50" relative="1" as="geometry">
            <mxPoint y="40" as="sourcePoint" />
            <mxPoint as="targetPoint" />
          </mxGeometry>
        </mxCell>
        <mxCell id="XweZ4Oe21oGHiwXUeN7P-16" value="" style="endArrow=none;html=1;rounded=0;" parent="XweZ4Oe21oGHiwXUeN7P-26" edge="1">
          <mxGeometry width="50" height="50" relative="1" as="geometry">
            <mxPoint y="40" as="sourcePoint" />
            <mxPoint x="90" y="40" as="targetPoint" />
          </mxGeometry>
        </mxCell>
        <mxCell id="XweZ4Oe21oGHiwXUeN7P-17" value="" style="endArrow=none;html=1;rounded=0;" parent="XweZ4Oe21oGHiwXUeN7P-26" edge="1">
          <mxGeometry width="50" height="50" relative="1" as="geometry">
            <mxPoint x="90" y="40" as="sourcePoint" />
            <mxPoint x="90" as="targetPoint" />
          </mxGeometry>
        </mxCell>
        <mxCell id="XweZ4Oe21oGHiwXUeN7P-18" value="" style="endArrow=none;html=1;rounded=0;" parent="XweZ4Oe21oGHiwXUeN7P-26" edge="1">
          <mxGeometry width="50" height="50" relative="1" as="geometry">
            <mxPoint as="sourcePoint" />
            <mxPoint x="20" as="targetPoint" />
          </mxGeometry>
        </mxCell>
        <mxCell id="XweZ4Oe21oGHiwXUeN7P-19" value="" style="endArrow=none;html=1;rounded=0;" parent="XweZ4Oe21oGHiwXUeN7P-26" edge="1">
          <mxGeometry width="50" height="50" relative="1" as="geometry">
            <mxPoint x="70" as="sourcePoint" />
            <mxPoint x="90" as="targetPoint" />
          </mxGeometry>
        </mxCell>
        <mxCell id="XweZ4Oe21oGHiwXUeN7P-20" value="" style="endArrow=none;html=1;rounded=0;" parent="XweZ4Oe21oGHiwXUeN7P-26" edge="1">
          <mxGeometry width="50" height="50" relative="1" as="geometry">
            <mxPoint x="20" as="sourcePoint" />
            <mxPoint x="20" y="10" as="targetPoint" />
          </mxGeometry>
        </mxCell>
        <mxCell id="XweZ4Oe21oGHiwXUeN7P-21" value="" style="endArrow=none;html=1;rounded=0;" parent="XweZ4Oe21oGHiwXUeN7P-26" edge="1">
          <mxGeometry width="50" height="50" relative="1" as="geometry">
            <mxPoint x="70" as="sourcePoint" />
            <mxPoint x="70" y="10" as="targetPoint" />
          </mxGeometry>
        </mxCell>
        <mxCell id="XweZ4Oe21oGHiwXUeN7P-22" value="" style="endArrow=none;html=1;rounded=0;" parent="XweZ4Oe21oGHiwXUeN7P-26" edge="1">
          <mxGeometry width="50" height="50" relative="1" as="geometry">
            <mxPoint x="20" y="10" as="sourcePoint" />
            <mxPoint x="70" y="10" as="targetPoint" />
          </mxGeometry>
        </mxCell>
        <mxCell id="XweZ4Oe21oGHiwXUeN7P-23" value="" style="ellipse;whiteSpace=wrap;html=1;aspect=fixed;" parent="XweZ4Oe21oGHiwXUeN7P-26" vertex="1">
          <mxGeometry x="40" y="20" width="10" height="10" as="geometry" />
        </mxCell>
        <mxCell id="XweZ4Oe21oGHiwXUeN7P-24" value="" style="ellipse;whiteSpace=wrap;html=1;aspect=fixed;" parent="XweZ4Oe21oGHiwXUeN7P-26" vertex="1">
          <mxGeometry x="60" y="20" width="10" height="10" as="geometry" />
        </mxCell>
        <mxCell id="XweZ4Oe21oGHiwXUeN7P-25" value="" style="ellipse;whiteSpace=wrap;html=1;aspect=fixed;" parent="XweZ4Oe21oGHiwXUeN7P-26" vertex="1">
          <mxGeometry x="20" y="20" width="10" height="10" as="geometry" />
        </mxCell>
        <mxCell id="XweZ4Oe21oGHiwXUeN7P-27" value="" style="rounded=0;whiteSpace=wrap;html=1;fillColor=#000000;" parent="1" vertex="1">
          <mxGeometry x="374" y="170" width="80" height="110" as="geometry" />
        </mxCell>
        <mxCell id="XweZ4Oe21oGHiwXUeN7P-30" value="&lt;b&gt;&lt;font face=&quot;Times New Roman&quot; style=&quot;font-size: 17px; color: rgb(255, 255, 255);&quot;&gt;USB-B&lt;/font&gt;&lt;/b&gt;" style="text;html=1;align=center;verticalAlign=middle;whiteSpace=wrap;rounded=0;rotation=90;" parent="1" vertex="1">
          <mxGeometry x="383" y="210" width="60" height="30" as="geometry" />
        </mxCell>
        <mxCell id="XweZ4Oe21oGHiwXUeN7P-32" value="" style="group" parent="1" vertex="1" connectable="0">
          <mxGeometry x="223" y="370" width="90" height="40" as="geometry" />
        </mxCell>
        <mxCell id="XweZ4Oe21oGHiwXUeN7P-33" value="" style="endArrow=none;html=1;rounded=0;" parent="XweZ4Oe21oGHiwXUeN7P-32" edge="1">
          <mxGeometry width="50" height="50" relative="1" as="geometry">
            <mxPoint y="40" as="sourcePoint" />
            <mxPoint as="targetPoint" />
          </mxGeometry>
        </mxCell>
        <mxCell id="XweZ4Oe21oGHiwXUeN7P-34" value="" style="endArrow=none;html=1;rounded=0;" parent="XweZ4Oe21oGHiwXUeN7P-32" edge="1">
          <mxGeometry width="50" height="50" relative="1" as="geometry">
            <mxPoint y="40" as="sourcePoint" />
            <mxPoint x="90" y="40" as="targetPoint" />
          </mxGeometry>
        </mxCell>
        <mxCell id="XweZ4Oe21oGHiwXUeN7P-35" value="" style="endArrow=none;html=1;rounded=0;" parent="XweZ4Oe21oGHiwXUeN7P-32" edge="1">
          <mxGeometry width="50" height="50" relative="1" as="geometry">
            <mxPoint x="90" y="40" as="sourcePoint" />
            <mxPoint x="90" as="targetPoint" />
          </mxGeometry>
        </mxCell>
        <mxCell id="XweZ4Oe21oGHiwXUeN7P-36" value="" style="endArrow=none;html=1;rounded=0;" parent="XweZ4Oe21oGHiwXUeN7P-32" edge="1">
          <mxGeometry width="50" height="50" relative="1" as="geometry">
            <mxPoint as="sourcePoint" />
            <mxPoint x="20" as="targetPoint" />
          </mxGeometry>
        </mxCell>
        <mxCell id="XweZ4Oe21oGHiwXUeN7P-37" value="" style="endArrow=none;html=1;rounded=0;" parent="XweZ4Oe21oGHiwXUeN7P-32" edge="1">
          <mxGeometry width="50" height="50" relative="1" as="geometry">
            <mxPoint x="70" as="sourcePoint" />
            <mxPoint x="90" as="targetPoint" />
          </mxGeometry>
        </mxCell>
        <mxCell id="XweZ4Oe21oGHiwXUeN7P-38" value="" style="endArrow=none;html=1;rounded=0;" parent="XweZ4Oe21oGHiwXUeN7P-32" edge="1">
          <mxGeometry width="50" height="50" relative="1" as="geometry">
            <mxPoint x="20" as="sourcePoint" />
            <mxPoint x="20" y="10" as="targetPoint" />
          </mxGeometry>
        </mxCell>
        <mxCell id="XweZ4Oe21oGHiwXUeN7P-39" value="" style="endArrow=none;html=1;rounded=0;" parent="XweZ4Oe21oGHiwXUeN7P-32" edge="1">
          <mxGeometry width="50" height="50" relative="1" as="geometry">
            <mxPoint x="70" as="sourcePoint" />
            <mxPoint x="70" y="10" as="targetPoint" />
          </mxGeometry>
        </mxCell>
        <mxCell id="XweZ4Oe21oGHiwXUeN7P-40" value="" style="endArrow=none;html=1;rounded=0;" parent="XweZ4Oe21oGHiwXUeN7P-32" edge="1">
          <mxGeometry width="50" height="50" relative="1" as="geometry">
            <mxPoint x="20" y="10" as="sourcePoint" />
            <mxPoint x="70" y="10" as="targetPoint" />
          </mxGeometry>
        </mxCell>
        <mxCell id="XweZ4Oe21oGHiwXUeN7P-41" value="" style="ellipse;whiteSpace=wrap;html=1;aspect=fixed;" parent="XweZ4Oe21oGHiwXUeN7P-32" vertex="1">
          <mxGeometry x="40" y="20" width="10" height="10" as="geometry" />
        </mxCell>
        <mxCell id="XweZ4Oe21oGHiwXUeN7P-42" value="" style="ellipse;whiteSpace=wrap;html=1;aspect=fixed;" parent="XweZ4Oe21oGHiwXUeN7P-32" vertex="1">
          <mxGeometry x="60" y="20" width="10" height="10" as="geometry" />
        </mxCell>
        <mxCell id="XweZ4Oe21oGHiwXUeN7P-43" value="" style="ellipse;whiteSpace=wrap;html=1;aspect=fixed;" parent="XweZ4Oe21oGHiwXUeN7P-32" vertex="1">
          <mxGeometry x="20" y="20" width="10" height="10" as="geometry" />
        </mxCell>
        <mxCell id="XweZ4Oe21oGHiwXUeN7P-45" value="" style="group" parent="1" vertex="1" connectable="0">
          <mxGeometry x="223" y="420" width="90" height="40" as="geometry" />
        </mxCell>
        <mxCell id="XweZ4Oe21oGHiwXUeN7P-46" value="" style="endArrow=none;html=1;rounded=0;" parent="XweZ4Oe21oGHiwXUeN7P-45" edge="1">
          <mxGeometry width="50" height="50" relative="1" as="geometry">
            <mxPoint y="40" as="sourcePoint" />
            <mxPoint as="targetPoint" />
          </mxGeometry>
        </mxCell>
        <mxCell id="XweZ4Oe21oGHiwXUeN7P-47" value="" style="endArrow=none;html=1;rounded=0;" parent="XweZ4Oe21oGHiwXUeN7P-45" edge="1">
          <mxGeometry width="50" height="50" relative="1" as="geometry">
            <mxPoint y="40" as="sourcePoint" />
            <mxPoint x="90" y="40" as="targetPoint" />
          </mxGeometry>
        </mxCell>
        <mxCell id="XweZ4Oe21oGHiwXUeN7P-48" value="" style="endArrow=none;html=1;rounded=0;" parent="XweZ4Oe21oGHiwXUeN7P-45" edge="1">
          <mxGeometry width="50" height="50" relative="1" as="geometry">
            <mxPoint x="90" y="40" as="sourcePoint" />
            <mxPoint x="90" as="targetPoint" />
          </mxGeometry>
        </mxCell>
        <mxCell id="XweZ4Oe21oGHiwXUeN7P-49" value="" style="endArrow=none;html=1;rounded=0;" parent="XweZ4Oe21oGHiwXUeN7P-45" edge="1">
          <mxGeometry width="50" height="50" relative="1" as="geometry">
            <mxPoint as="sourcePoint" />
            <mxPoint x="20" as="targetPoint" />
          </mxGeometry>
        </mxCell>
        <mxCell id="XweZ4Oe21oGHiwXUeN7P-50" value="" style="endArrow=none;html=1;rounded=0;" parent="XweZ4Oe21oGHiwXUeN7P-45" edge="1">
          <mxGeometry width="50" height="50" relative="1" as="geometry">
            <mxPoint x="70" as="sourcePoint" />
            <mxPoint x="90" as="targetPoint" />
          </mxGeometry>
        </mxCell>
        <mxCell id="XweZ4Oe21oGHiwXUeN7P-51" value="" style="endArrow=none;html=1;rounded=0;" parent="XweZ4Oe21oGHiwXUeN7P-45" edge="1">
          <mxGeometry width="50" height="50" relative="1" as="geometry">
            <mxPoint x="20" as="sourcePoint" />
            <mxPoint x="20" y="10" as="targetPoint" />
          </mxGeometry>
        </mxCell>
        <mxCell id="XweZ4Oe21oGHiwXUeN7P-52" value="" style="endArrow=none;html=1;rounded=0;" parent="XweZ4Oe21oGHiwXUeN7P-45" edge="1">
          <mxGeometry width="50" height="50" relative="1" as="geometry">
            <mxPoint x="70" as="sourcePoint" />
            <mxPoint x="70" y="10" as="targetPoint" />
          </mxGeometry>
        </mxCell>
        <mxCell id="XweZ4Oe21oGHiwXUeN7P-53" value="" style="endArrow=none;html=1;rounded=0;" parent="XweZ4Oe21oGHiwXUeN7P-45" edge="1">
          <mxGeometry width="50" height="50" relative="1" as="geometry">
            <mxPoint x="20" y="10" as="sourcePoint" />
            <mxPoint x="70" y="10" as="targetPoint" />
          </mxGeometry>
        </mxCell>
        <mxCell id="XweZ4Oe21oGHiwXUeN7P-54" value="" style="ellipse;whiteSpace=wrap;html=1;aspect=fixed;" parent="XweZ4Oe21oGHiwXUeN7P-45" vertex="1">
          <mxGeometry x="40" y="20" width="10" height="10" as="geometry" />
        </mxCell>
        <mxCell id="XweZ4Oe21oGHiwXUeN7P-55" value="" style="ellipse;whiteSpace=wrap;html=1;aspect=fixed;" parent="XweZ4Oe21oGHiwXUeN7P-45" vertex="1">
          <mxGeometry x="60" y="20" width="10" height="10" as="geometry" />
        </mxCell>
        <mxCell id="XweZ4Oe21oGHiwXUeN7P-56" value="" style="ellipse;whiteSpace=wrap;html=1;aspect=fixed;" parent="XweZ4Oe21oGHiwXUeN7P-45" vertex="1">
          <mxGeometry x="20" y="20" width="10" height="10" as="geometry" />
        </mxCell>
        <mxCell id="XweZ4Oe21oGHiwXUeN7P-57" value="" style="group" parent="1" vertex="1" connectable="0">
          <mxGeometry x="223" y="470" width="90" height="40" as="geometry" />
        </mxCell>
        <mxCell id="XweZ4Oe21oGHiwXUeN7P-58" value="" style="endArrow=none;html=1;rounded=0;" parent="XweZ4Oe21oGHiwXUeN7P-57" edge="1">
          <mxGeometry width="50" height="50" relative="1" as="geometry">
            <mxPoint y="40" as="sourcePoint" />
            <mxPoint as="targetPoint" />
          </mxGeometry>
        </mxCell>
        <mxCell id="XweZ4Oe21oGHiwXUeN7P-59" value="" style="endArrow=none;html=1;rounded=0;" parent="XweZ4Oe21oGHiwXUeN7P-57" edge="1">
          <mxGeometry width="50" height="50" relative="1" as="geometry">
            <mxPoint y="40" as="sourcePoint" />
            <mxPoint x="90" y="40" as="targetPoint" />
          </mxGeometry>
        </mxCell>
        <mxCell id="XweZ4Oe21oGHiwXUeN7P-60" value="" style="endArrow=none;html=1;rounded=0;" parent="XweZ4Oe21oGHiwXUeN7P-57" edge="1">
          <mxGeometry width="50" height="50" relative="1" as="geometry">
            <mxPoint x="90" y="40" as="sourcePoint" />
            <mxPoint x="90" as="targetPoint" />
          </mxGeometry>
        </mxCell>
        <mxCell id="XweZ4Oe21oGHiwXUeN7P-61" value="" style="endArrow=none;html=1;rounded=0;" parent="XweZ4Oe21oGHiwXUeN7P-57" edge="1">
          <mxGeometry width="50" height="50" relative="1" as="geometry">
            <mxPoint as="sourcePoint" />
            <mxPoint x="20" as="targetPoint" />
          </mxGeometry>
        </mxCell>
        <mxCell id="XweZ4Oe21oGHiwXUeN7P-62" value="" style="endArrow=none;html=1;rounded=0;" parent="XweZ4Oe21oGHiwXUeN7P-57" edge="1">
          <mxGeometry width="50" height="50" relative="1" as="geometry">
            <mxPoint x="70" as="sourcePoint" />
            <mxPoint x="90" as="targetPoint" />
          </mxGeometry>
        </mxCell>
        <mxCell id="XweZ4Oe21oGHiwXUeN7P-63" value="" style="endArrow=none;html=1;rounded=0;" parent="XweZ4Oe21oGHiwXUeN7P-57" edge="1">
          <mxGeometry width="50" height="50" relative="1" as="geometry">
            <mxPoint x="20" as="sourcePoint" />
            <mxPoint x="20" y="10" as="targetPoint" />
          </mxGeometry>
        </mxCell>
        <mxCell id="XweZ4Oe21oGHiwXUeN7P-64" value="" style="endArrow=none;html=1;rounded=0;" parent="XweZ4Oe21oGHiwXUeN7P-57" edge="1">
          <mxGeometry width="50" height="50" relative="1" as="geometry">
            <mxPoint x="70" as="sourcePoint" />
            <mxPoint x="70" y="10" as="targetPoint" />
          </mxGeometry>
        </mxCell>
        <mxCell id="XweZ4Oe21oGHiwXUeN7P-65" value="" style="endArrow=none;html=1;rounded=0;" parent="XweZ4Oe21oGHiwXUeN7P-57" edge="1">
          <mxGeometry width="50" height="50" relative="1" as="geometry">
            <mxPoint x="20" y="10" as="sourcePoint" />
            <mxPoint x="70" y="10" as="targetPoint" />
          </mxGeometry>
        </mxCell>
        <mxCell id="XweZ4Oe21oGHiwXUeN7P-66" value="" style="ellipse;whiteSpace=wrap;html=1;aspect=fixed;" parent="XweZ4Oe21oGHiwXUeN7P-57" vertex="1">
          <mxGeometry x="40" y="20" width="10" height="10" as="geometry" />
        </mxCell>
        <mxCell id="XweZ4Oe21oGHiwXUeN7P-67" value="" style="ellipse;whiteSpace=wrap;html=1;aspect=fixed;" parent="XweZ4Oe21oGHiwXUeN7P-57" vertex="1">
          <mxGeometry x="60" y="20" width="10" height="10" as="geometry" />
        </mxCell>
        <mxCell id="XweZ4Oe21oGHiwXUeN7P-68" value="" style="ellipse;whiteSpace=wrap;html=1;aspect=fixed;" parent="XweZ4Oe21oGHiwXUeN7P-57" vertex="1">
          <mxGeometry x="20" y="20" width="10" height="10" as="geometry" />
        </mxCell>
        <mxCell id="XweZ4Oe21oGHiwXUeN7P-69" value="" style="group" parent="1" vertex="1" connectable="0">
          <mxGeometry x="223" y="520" width="90" height="40" as="geometry" />
        </mxCell>
        <mxCell id="XweZ4Oe21oGHiwXUeN7P-70" value="" style="endArrow=none;html=1;rounded=0;" parent="XweZ4Oe21oGHiwXUeN7P-69" edge="1">
          <mxGeometry width="50" height="50" relative="1" as="geometry">
            <mxPoint y="40" as="sourcePoint" />
            <mxPoint as="targetPoint" />
          </mxGeometry>
        </mxCell>
        <mxCell id="XweZ4Oe21oGHiwXUeN7P-71" value="" style="endArrow=none;html=1;rounded=0;" parent="XweZ4Oe21oGHiwXUeN7P-69" edge="1">
          <mxGeometry width="50" height="50" relative="1" as="geometry">
            <mxPoint y="40" as="sourcePoint" />
            <mxPoint x="90" y="40" as="targetPoint" />
          </mxGeometry>
        </mxCell>
        <mxCell id="XweZ4Oe21oGHiwXUeN7P-72" value="" style="endArrow=none;html=1;rounded=0;" parent="XweZ4Oe21oGHiwXUeN7P-69" edge="1">
          <mxGeometry width="50" height="50" relative="1" as="geometry">
            <mxPoint x="90" y="40" as="sourcePoint" />
            <mxPoint x="90" as="targetPoint" />
          </mxGeometry>
        </mxCell>
        <mxCell id="XweZ4Oe21oGHiwXUeN7P-73" value="" style="endArrow=none;html=1;rounded=0;" parent="XweZ4Oe21oGHiwXUeN7P-69" edge="1">
          <mxGeometry width="50" height="50" relative="1" as="geometry">
            <mxPoint as="sourcePoint" />
            <mxPoint x="20" as="targetPoint" />
          </mxGeometry>
        </mxCell>
        <mxCell id="XweZ4Oe21oGHiwXUeN7P-74" value="" style="endArrow=none;html=1;rounded=0;" parent="XweZ4Oe21oGHiwXUeN7P-69" edge="1">
          <mxGeometry width="50" height="50" relative="1" as="geometry">
            <mxPoint x="70" as="sourcePoint" />
            <mxPoint x="90" as="targetPoint" />
          </mxGeometry>
        </mxCell>
        <mxCell id="XweZ4Oe21oGHiwXUeN7P-75" value="" style="endArrow=none;html=1;rounded=0;" parent="XweZ4Oe21oGHiwXUeN7P-69" edge="1">
          <mxGeometry width="50" height="50" relative="1" as="geometry">
            <mxPoint x="20" as="sourcePoint" />
            <mxPoint x="20" y="10" as="targetPoint" />
          </mxGeometry>
        </mxCell>
        <mxCell id="XweZ4Oe21oGHiwXUeN7P-76" value="" style="endArrow=none;html=1;rounded=0;" parent="XweZ4Oe21oGHiwXUeN7P-69" edge="1">
          <mxGeometry width="50" height="50" relative="1" as="geometry">
            <mxPoint x="70" as="sourcePoint" />
            <mxPoint x="70" y="10" as="targetPoint" />
          </mxGeometry>
        </mxCell>
        <mxCell id="XweZ4Oe21oGHiwXUeN7P-77" value="" style="endArrow=none;html=1;rounded=0;" parent="XweZ4Oe21oGHiwXUeN7P-69" edge="1">
          <mxGeometry width="50" height="50" relative="1" as="geometry">
            <mxPoint x="20" y="10" as="sourcePoint" />
            <mxPoint x="70" y="10" as="targetPoint" />
          </mxGeometry>
        </mxCell>
        <mxCell id="XweZ4Oe21oGHiwXUeN7P-78" value="" style="ellipse;whiteSpace=wrap;html=1;aspect=fixed;" parent="XweZ4Oe21oGHiwXUeN7P-69" vertex="1">
          <mxGeometry x="40" y="20" width="10" height="10" as="geometry" />
        </mxCell>
        <mxCell id="XweZ4Oe21oGHiwXUeN7P-79" value="" style="ellipse;whiteSpace=wrap;html=1;aspect=fixed;" parent="XweZ4Oe21oGHiwXUeN7P-69" vertex="1">
          <mxGeometry x="60" y="20" width="10" height="10" as="geometry" />
        </mxCell>
        <mxCell id="XweZ4Oe21oGHiwXUeN7P-80" value="" style="ellipse;whiteSpace=wrap;html=1;aspect=fixed;" parent="XweZ4Oe21oGHiwXUeN7P-69" vertex="1">
          <mxGeometry x="20" y="20" width="10" height="10" as="geometry" />
        </mxCell>
        <mxCell id="XweZ4Oe21oGHiwXUeN7P-81" value="" style="group" parent="1" vertex="1" connectable="0">
          <mxGeometry x="223" y="570" width="90" height="40" as="geometry" />
        </mxCell>
        <mxCell id="XweZ4Oe21oGHiwXUeN7P-82" value="" style="endArrow=none;html=1;rounded=0;" parent="XweZ4Oe21oGHiwXUeN7P-81" edge="1">
          <mxGeometry width="50" height="50" relative="1" as="geometry">
            <mxPoint y="40" as="sourcePoint" />
            <mxPoint as="targetPoint" />
          </mxGeometry>
        </mxCell>
        <mxCell id="XweZ4Oe21oGHiwXUeN7P-83" value="" style="endArrow=none;html=1;rounded=0;" parent="XweZ4Oe21oGHiwXUeN7P-81" edge="1">
          <mxGeometry width="50" height="50" relative="1" as="geometry">
            <mxPoint y="40" as="sourcePoint" />
            <mxPoint x="90" y="40" as="targetPoint" />
          </mxGeometry>
        </mxCell>
        <mxCell id="XweZ4Oe21oGHiwXUeN7P-84" value="" style="endArrow=none;html=1;rounded=0;" parent="XweZ4Oe21oGHiwXUeN7P-81" edge="1">
          <mxGeometry width="50" height="50" relative="1" as="geometry">
            <mxPoint x="90" y="40" as="sourcePoint" />
            <mxPoint x="90" as="targetPoint" />
          </mxGeometry>
        </mxCell>
        <mxCell id="XweZ4Oe21oGHiwXUeN7P-85" value="" style="endArrow=none;html=1;rounded=0;" parent="XweZ4Oe21oGHiwXUeN7P-81" edge="1">
          <mxGeometry width="50" height="50" relative="1" as="geometry">
            <mxPoint as="sourcePoint" />
            <mxPoint x="20" as="targetPoint" />
          </mxGeometry>
        </mxCell>
        <mxCell id="XweZ4Oe21oGHiwXUeN7P-86" value="" style="endArrow=none;html=1;rounded=0;" parent="XweZ4Oe21oGHiwXUeN7P-81" edge="1">
          <mxGeometry width="50" height="50" relative="1" as="geometry">
            <mxPoint x="70" as="sourcePoint" />
            <mxPoint x="90" as="targetPoint" />
          </mxGeometry>
        </mxCell>
        <mxCell id="XweZ4Oe21oGHiwXUeN7P-87" value="" style="endArrow=none;html=1;rounded=0;" parent="XweZ4Oe21oGHiwXUeN7P-81" edge="1">
          <mxGeometry width="50" height="50" relative="1" as="geometry">
            <mxPoint x="20" as="sourcePoint" />
            <mxPoint x="20" y="10" as="targetPoint" />
          </mxGeometry>
        </mxCell>
        <mxCell id="XweZ4Oe21oGHiwXUeN7P-88" value="" style="endArrow=none;html=1;rounded=0;" parent="XweZ4Oe21oGHiwXUeN7P-81" edge="1">
          <mxGeometry width="50" height="50" relative="1" as="geometry">
            <mxPoint x="70" as="sourcePoint" />
            <mxPoint x="70" y="10" as="targetPoint" />
          </mxGeometry>
        </mxCell>
        <mxCell id="XweZ4Oe21oGHiwXUeN7P-89" value="" style="endArrow=none;html=1;rounded=0;" parent="XweZ4Oe21oGHiwXUeN7P-81" edge="1">
          <mxGeometry width="50" height="50" relative="1" as="geometry">
            <mxPoint x="20" y="10" as="sourcePoint" />
            <mxPoint x="70" y="10" as="targetPoint" />
          </mxGeometry>
        </mxCell>
        <mxCell id="XweZ4Oe21oGHiwXUeN7P-90" value="" style="ellipse;whiteSpace=wrap;html=1;aspect=fixed;" parent="XweZ4Oe21oGHiwXUeN7P-81" vertex="1">
          <mxGeometry x="40" y="20" width="10" height="10" as="geometry" />
        </mxCell>
        <mxCell id="XweZ4Oe21oGHiwXUeN7P-91" value="" style="ellipse;whiteSpace=wrap;html=1;aspect=fixed;" parent="XweZ4Oe21oGHiwXUeN7P-81" vertex="1">
          <mxGeometry x="60" y="20" width="10" height="10" as="geometry" />
        </mxCell>
        <mxCell id="XweZ4Oe21oGHiwXUeN7P-92" value="" style="ellipse;whiteSpace=wrap;html=1;aspect=fixed;" parent="XweZ4Oe21oGHiwXUeN7P-81" vertex="1">
          <mxGeometry x="20" y="20" width="10" height="10" as="geometry" />
        </mxCell>
        <mxCell id="XweZ4Oe21oGHiwXUeN7P-93" value="" style="group" parent="1" vertex="1" connectable="0">
          <mxGeometry x="223" y="620" width="90" height="40" as="geometry" />
        </mxCell>
        <mxCell id="XweZ4Oe21oGHiwXUeN7P-94" value="" style="endArrow=none;html=1;rounded=0;" parent="XweZ4Oe21oGHiwXUeN7P-93" edge="1">
          <mxGeometry width="50" height="50" relative="1" as="geometry">
            <mxPoint y="40" as="sourcePoint" />
            <mxPoint as="targetPoint" />
          </mxGeometry>
        </mxCell>
        <mxCell id="XweZ4Oe21oGHiwXUeN7P-95" value="" style="endArrow=none;html=1;rounded=0;" parent="XweZ4Oe21oGHiwXUeN7P-93" edge="1">
          <mxGeometry width="50" height="50" relative="1" as="geometry">
            <mxPoint y="40" as="sourcePoint" />
            <mxPoint x="90" y="40" as="targetPoint" />
          </mxGeometry>
        </mxCell>
        <mxCell id="XweZ4Oe21oGHiwXUeN7P-96" value="" style="endArrow=none;html=1;rounded=0;" parent="XweZ4Oe21oGHiwXUeN7P-93" edge="1">
          <mxGeometry width="50" height="50" relative="1" as="geometry">
            <mxPoint x="90" y="40" as="sourcePoint" />
            <mxPoint x="90" as="targetPoint" />
          </mxGeometry>
        </mxCell>
        <mxCell id="XweZ4Oe21oGHiwXUeN7P-97" value="" style="endArrow=none;html=1;rounded=0;" parent="XweZ4Oe21oGHiwXUeN7P-93" edge="1">
          <mxGeometry width="50" height="50" relative="1" as="geometry">
            <mxPoint as="sourcePoint" />
            <mxPoint x="20" as="targetPoint" />
          </mxGeometry>
        </mxCell>
        <mxCell id="XweZ4Oe21oGHiwXUeN7P-98" value="" style="endArrow=none;html=1;rounded=0;" parent="XweZ4Oe21oGHiwXUeN7P-93" edge="1">
          <mxGeometry width="50" height="50" relative="1" as="geometry">
            <mxPoint x="70" as="sourcePoint" />
            <mxPoint x="90" as="targetPoint" />
          </mxGeometry>
        </mxCell>
        <mxCell id="XweZ4Oe21oGHiwXUeN7P-99" value="" style="endArrow=none;html=1;rounded=0;" parent="XweZ4Oe21oGHiwXUeN7P-93" edge="1">
          <mxGeometry width="50" height="50" relative="1" as="geometry">
            <mxPoint x="20" as="sourcePoint" />
            <mxPoint x="20" y="10" as="targetPoint" />
          </mxGeometry>
        </mxCell>
        <mxCell id="XweZ4Oe21oGHiwXUeN7P-100" value="" style="endArrow=none;html=1;rounded=0;" parent="XweZ4Oe21oGHiwXUeN7P-93" edge="1">
          <mxGeometry width="50" height="50" relative="1" as="geometry">
            <mxPoint x="70" as="sourcePoint" />
            <mxPoint x="70" y="10" as="targetPoint" />
          </mxGeometry>
        </mxCell>
        <mxCell id="XweZ4Oe21oGHiwXUeN7P-101" value="" style="endArrow=none;html=1;rounded=0;" parent="XweZ4Oe21oGHiwXUeN7P-93" edge="1">
          <mxGeometry width="50" height="50" relative="1" as="geometry">
            <mxPoint x="20" y="10" as="sourcePoint" />
            <mxPoint x="70" y="10" as="targetPoint" />
          </mxGeometry>
        </mxCell>
        <mxCell id="XweZ4Oe21oGHiwXUeN7P-102" value="" style="ellipse;whiteSpace=wrap;html=1;aspect=fixed;" parent="XweZ4Oe21oGHiwXUeN7P-93" vertex="1">
          <mxGeometry x="40" y="20" width="10" height="10" as="geometry" />
        </mxCell>
        <mxCell id="XweZ4Oe21oGHiwXUeN7P-103" value="" style="ellipse;whiteSpace=wrap;html=1;aspect=fixed;" parent="XweZ4Oe21oGHiwXUeN7P-93" vertex="1">
          <mxGeometry x="60" y="20" width="10" height="10" as="geometry" />
        </mxCell>
        <mxCell id="XweZ4Oe21oGHiwXUeN7P-104" value="" style="ellipse;whiteSpace=wrap;html=1;aspect=fixed;" parent="XweZ4Oe21oGHiwXUeN7P-93" vertex="1">
          <mxGeometry x="20" y="20" width="10" height="10" as="geometry" />
        </mxCell>
        <mxCell id="XweZ4Oe21oGHiwXUeN7P-144" value="" style="group" parent="1" vertex="1" connectable="0">
          <mxGeometry x="223" y="670" width="90" height="40" as="geometry" />
        </mxCell>
        <mxCell id="XweZ4Oe21oGHiwXUeN7P-145" value="" style="endArrow=none;html=1;rounded=0;" parent="XweZ4Oe21oGHiwXUeN7P-144" edge="1">
          <mxGeometry width="50" height="50" relative="1" as="geometry">
            <mxPoint y="40" as="sourcePoint" />
            <mxPoint as="targetPoint" />
          </mxGeometry>
        </mxCell>
        <mxCell id="XweZ4Oe21oGHiwXUeN7P-146" value="" style="endArrow=none;html=1;rounded=0;" parent="XweZ4Oe21oGHiwXUeN7P-144" edge="1">
          <mxGeometry width="50" height="50" relative="1" as="geometry">
            <mxPoint y="40" as="sourcePoint" />
            <mxPoint x="90" y="40" as="targetPoint" />
          </mxGeometry>
        </mxCell>
        <mxCell id="XweZ4Oe21oGHiwXUeN7P-147" value="" style="endArrow=none;html=1;rounded=0;" parent="XweZ4Oe21oGHiwXUeN7P-144" edge="1">
          <mxGeometry width="50" height="50" relative="1" as="geometry">
            <mxPoint x="90" y="40" as="sourcePoint" />
            <mxPoint x="90" as="targetPoint" />
          </mxGeometry>
        </mxCell>
        <mxCell id="XweZ4Oe21oGHiwXUeN7P-148" value="" style="endArrow=none;html=1;rounded=0;" parent="XweZ4Oe21oGHiwXUeN7P-144" edge="1">
          <mxGeometry width="50" height="50" relative="1" as="geometry">
            <mxPoint as="sourcePoint" />
            <mxPoint x="20" as="targetPoint" />
          </mxGeometry>
        </mxCell>
        <mxCell id="XweZ4Oe21oGHiwXUeN7P-149" value="" style="endArrow=none;html=1;rounded=0;" parent="XweZ4Oe21oGHiwXUeN7P-144" edge="1">
          <mxGeometry width="50" height="50" relative="1" as="geometry">
            <mxPoint x="70" as="sourcePoint" />
            <mxPoint x="90" as="targetPoint" />
          </mxGeometry>
        </mxCell>
        <mxCell id="XweZ4Oe21oGHiwXUeN7P-150" value="" style="endArrow=none;html=1;rounded=0;" parent="XweZ4Oe21oGHiwXUeN7P-144" edge="1">
          <mxGeometry width="50" height="50" relative="1" as="geometry">
            <mxPoint x="20" as="sourcePoint" />
            <mxPoint x="20" y="10" as="targetPoint" />
          </mxGeometry>
        </mxCell>
        <mxCell id="XweZ4Oe21oGHiwXUeN7P-151" value="" style="endArrow=none;html=1;rounded=0;" parent="XweZ4Oe21oGHiwXUeN7P-144" edge="1">
          <mxGeometry width="50" height="50" relative="1" as="geometry">
            <mxPoint x="70" as="sourcePoint" />
            <mxPoint x="70" y="10" as="targetPoint" />
          </mxGeometry>
        </mxCell>
        <mxCell id="XweZ4Oe21oGHiwXUeN7P-152" value="" style="endArrow=none;html=1;rounded=0;" parent="XweZ4Oe21oGHiwXUeN7P-144" edge="1">
          <mxGeometry width="50" height="50" relative="1" as="geometry">
            <mxPoint x="20" y="10" as="sourcePoint" />
            <mxPoint x="70" y="10" as="targetPoint" />
          </mxGeometry>
        </mxCell>
        <mxCell id="XweZ4Oe21oGHiwXUeN7P-153" value="" style="ellipse;whiteSpace=wrap;html=1;aspect=fixed;" parent="XweZ4Oe21oGHiwXUeN7P-144" vertex="1">
          <mxGeometry x="40" y="20" width="10" height="10" as="geometry" />
        </mxCell>
        <mxCell id="XweZ4Oe21oGHiwXUeN7P-154" value="" style="ellipse;whiteSpace=wrap;html=1;aspect=fixed;" parent="XweZ4Oe21oGHiwXUeN7P-144" vertex="1">
          <mxGeometry x="60" y="20" width="10" height="10" as="geometry" />
        </mxCell>
        <mxCell id="XweZ4Oe21oGHiwXUeN7P-155" value="" style="ellipse;whiteSpace=wrap;html=1;aspect=fixed;" parent="XweZ4Oe21oGHiwXUeN7P-144" vertex="1">
          <mxGeometry x="20" y="20" width="10" height="10" as="geometry" />
        </mxCell>
        <mxCell id="XweZ4Oe21oGHiwXUeN7P-156" value="" style="group" parent="1" vertex="1" connectable="0">
          <mxGeometry x="223" y="720" width="90" height="40" as="geometry" />
        </mxCell>
        <mxCell id="XweZ4Oe21oGHiwXUeN7P-157" value="" style="endArrow=none;html=1;rounded=0;" parent="XweZ4Oe21oGHiwXUeN7P-156" edge="1">
          <mxGeometry width="50" height="50" relative="1" as="geometry">
            <mxPoint y="40" as="sourcePoint" />
            <mxPoint as="targetPoint" />
          </mxGeometry>
        </mxCell>
        <mxCell id="XweZ4Oe21oGHiwXUeN7P-158" value="" style="endArrow=none;html=1;rounded=0;" parent="XweZ4Oe21oGHiwXUeN7P-156" edge="1">
          <mxGeometry width="50" height="50" relative="1" as="geometry">
            <mxPoint y="40" as="sourcePoint" />
            <mxPoint x="90" y="40" as="targetPoint" />
          </mxGeometry>
        </mxCell>
        <mxCell id="XweZ4Oe21oGHiwXUeN7P-159" value="" style="endArrow=none;html=1;rounded=0;" parent="XweZ4Oe21oGHiwXUeN7P-156" edge="1">
          <mxGeometry width="50" height="50" relative="1" as="geometry">
            <mxPoint x="90" y="40" as="sourcePoint" />
            <mxPoint x="90" as="targetPoint" />
          </mxGeometry>
        </mxCell>
        <mxCell id="XweZ4Oe21oGHiwXUeN7P-160" value="" style="endArrow=none;html=1;rounded=0;" parent="XweZ4Oe21oGHiwXUeN7P-156" edge="1">
          <mxGeometry width="50" height="50" relative="1" as="geometry">
            <mxPoint as="sourcePoint" />
            <mxPoint x="20" as="targetPoint" />
          </mxGeometry>
        </mxCell>
        <mxCell id="XweZ4Oe21oGHiwXUeN7P-161" value="" style="endArrow=none;html=1;rounded=0;" parent="XweZ4Oe21oGHiwXUeN7P-156" edge="1">
          <mxGeometry width="50" height="50" relative="1" as="geometry">
            <mxPoint x="70" as="sourcePoint" />
            <mxPoint x="90" as="targetPoint" />
          </mxGeometry>
        </mxCell>
        <mxCell id="XweZ4Oe21oGHiwXUeN7P-162" value="" style="endArrow=none;html=1;rounded=0;" parent="XweZ4Oe21oGHiwXUeN7P-156" edge="1">
          <mxGeometry width="50" height="50" relative="1" as="geometry">
            <mxPoint x="20" as="sourcePoint" />
            <mxPoint x="20" y="10" as="targetPoint" />
          </mxGeometry>
        </mxCell>
        <mxCell id="XweZ4Oe21oGHiwXUeN7P-163" value="" style="endArrow=none;html=1;rounded=0;" parent="XweZ4Oe21oGHiwXUeN7P-156" edge="1">
          <mxGeometry width="50" height="50" relative="1" as="geometry">
            <mxPoint x="70" as="sourcePoint" />
            <mxPoint x="70" y="10" as="targetPoint" />
          </mxGeometry>
        </mxCell>
        <mxCell id="XweZ4Oe21oGHiwXUeN7P-164" value="" style="endArrow=none;html=1;rounded=0;" parent="XweZ4Oe21oGHiwXUeN7P-156" edge="1">
          <mxGeometry width="50" height="50" relative="1" as="geometry">
            <mxPoint x="20" y="10" as="sourcePoint" />
            <mxPoint x="70" y="10" as="targetPoint" />
          </mxGeometry>
        </mxCell>
        <mxCell id="XweZ4Oe21oGHiwXUeN7P-165" value="" style="ellipse;whiteSpace=wrap;html=1;aspect=fixed;" parent="XweZ4Oe21oGHiwXUeN7P-156" vertex="1">
          <mxGeometry x="40" y="20" width="10" height="10" as="geometry" />
        </mxCell>
        <mxCell id="XweZ4Oe21oGHiwXUeN7P-166" value="" style="ellipse;whiteSpace=wrap;html=1;aspect=fixed;" parent="XweZ4Oe21oGHiwXUeN7P-156" vertex="1">
          <mxGeometry x="60" y="20" width="10" height="10" as="geometry" />
        </mxCell>
        <mxCell id="XweZ4Oe21oGHiwXUeN7P-167" value="" style="ellipse;whiteSpace=wrap;html=1;aspect=fixed;" parent="XweZ4Oe21oGHiwXUeN7P-156" vertex="1">
          <mxGeometry x="20" y="20" width="10" height="10" as="geometry" />
        </mxCell>
        <mxCell id="XweZ4Oe21oGHiwXUeN7P-168" value="" style="group" parent="1" vertex="1" connectable="0">
          <mxGeometry x="223" y="770" width="90" height="40" as="geometry" />
        </mxCell>
        <mxCell id="XweZ4Oe21oGHiwXUeN7P-169" value="" style="endArrow=none;html=1;rounded=0;" parent="XweZ4Oe21oGHiwXUeN7P-168" edge="1">
          <mxGeometry width="50" height="50" relative="1" as="geometry">
            <mxPoint y="40" as="sourcePoint" />
            <mxPoint as="targetPoint" />
          </mxGeometry>
        </mxCell>
        <mxCell id="XweZ4Oe21oGHiwXUeN7P-170" value="" style="endArrow=none;html=1;rounded=0;" parent="XweZ4Oe21oGHiwXUeN7P-168" edge="1">
          <mxGeometry width="50" height="50" relative="1" as="geometry">
            <mxPoint y="40" as="sourcePoint" />
            <mxPoint x="90" y="40" as="targetPoint" />
          </mxGeometry>
        </mxCell>
        <mxCell id="XweZ4Oe21oGHiwXUeN7P-171" value="" style="endArrow=none;html=1;rounded=0;" parent="XweZ4Oe21oGHiwXUeN7P-168" edge="1">
          <mxGeometry width="50" height="50" relative="1" as="geometry">
            <mxPoint x="90" y="40" as="sourcePoint" />
            <mxPoint x="90" as="targetPoint" />
          </mxGeometry>
        </mxCell>
        <mxCell id="XweZ4Oe21oGHiwXUeN7P-172" value="" style="endArrow=none;html=1;rounded=0;" parent="XweZ4Oe21oGHiwXUeN7P-168" edge="1">
          <mxGeometry width="50" height="50" relative="1" as="geometry">
            <mxPoint as="sourcePoint" />
            <mxPoint x="20" as="targetPoint" />
          </mxGeometry>
        </mxCell>
        <mxCell id="XweZ4Oe21oGHiwXUeN7P-173" value="" style="endArrow=none;html=1;rounded=0;" parent="XweZ4Oe21oGHiwXUeN7P-168" edge="1">
          <mxGeometry width="50" height="50" relative="1" as="geometry">
            <mxPoint x="70" as="sourcePoint" />
            <mxPoint x="90" as="targetPoint" />
          </mxGeometry>
        </mxCell>
        <mxCell id="XweZ4Oe21oGHiwXUeN7P-174" value="" style="endArrow=none;html=1;rounded=0;" parent="XweZ4Oe21oGHiwXUeN7P-168" edge="1">
          <mxGeometry width="50" height="50" relative="1" as="geometry">
            <mxPoint x="20" as="sourcePoint" />
            <mxPoint x="20" y="10" as="targetPoint" />
          </mxGeometry>
        </mxCell>
        <mxCell id="XweZ4Oe21oGHiwXUeN7P-175" value="" style="endArrow=none;html=1;rounded=0;" parent="XweZ4Oe21oGHiwXUeN7P-168" edge="1">
          <mxGeometry width="50" height="50" relative="1" as="geometry">
            <mxPoint x="70" as="sourcePoint" />
            <mxPoint x="70" y="10" as="targetPoint" />
          </mxGeometry>
        </mxCell>
        <mxCell id="XweZ4Oe21oGHiwXUeN7P-176" value="" style="endArrow=none;html=1;rounded=0;" parent="XweZ4Oe21oGHiwXUeN7P-168" edge="1">
          <mxGeometry width="50" height="50" relative="1" as="geometry">
            <mxPoint x="20" y="10" as="sourcePoint" />
            <mxPoint x="70" y="10" as="targetPoint" />
          </mxGeometry>
        </mxCell>
        <mxCell id="XweZ4Oe21oGHiwXUeN7P-177" value="" style="ellipse;whiteSpace=wrap;html=1;aspect=fixed;" parent="XweZ4Oe21oGHiwXUeN7P-168" vertex="1">
          <mxGeometry x="40" y="20" width="10" height="10" as="geometry" />
        </mxCell>
        <mxCell id="XweZ4Oe21oGHiwXUeN7P-178" value="" style="ellipse;whiteSpace=wrap;html=1;aspect=fixed;" parent="XweZ4Oe21oGHiwXUeN7P-168" vertex="1">
          <mxGeometry x="60" y="20" width="10" height="10" as="geometry" />
        </mxCell>
        <mxCell id="XweZ4Oe21oGHiwXUeN7P-179" value="" style="ellipse;whiteSpace=wrap;html=1;aspect=fixed;" parent="XweZ4Oe21oGHiwXUeN7P-168" vertex="1">
          <mxGeometry x="20" y="20" width="10" height="10" as="geometry" />
        </mxCell>
        <mxCell id="XweZ4Oe21oGHiwXUeN7P-180" value="" style="group" parent="1" vertex="1" connectable="0">
          <mxGeometry x="223" y="820" width="90" height="40" as="geometry" />
        </mxCell>
        <mxCell id="XweZ4Oe21oGHiwXUeN7P-181" value="" style="endArrow=none;html=1;rounded=0;" parent="XweZ4Oe21oGHiwXUeN7P-180" edge="1">
          <mxGeometry width="50" height="50" relative="1" as="geometry">
            <mxPoint y="40" as="sourcePoint" />
            <mxPoint as="targetPoint" />
          </mxGeometry>
        </mxCell>
        <mxCell id="XweZ4Oe21oGHiwXUeN7P-182" value="" style="endArrow=none;html=1;rounded=0;" parent="XweZ4Oe21oGHiwXUeN7P-180" edge="1">
          <mxGeometry width="50" height="50" relative="1" as="geometry">
            <mxPoint y="40" as="sourcePoint" />
            <mxPoint x="90" y="40" as="targetPoint" />
          </mxGeometry>
        </mxCell>
        <mxCell id="XweZ4Oe21oGHiwXUeN7P-183" value="" style="endArrow=none;html=1;rounded=0;" parent="XweZ4Oe21oGHiwXUeN7P-180" edge="1">
          <mxGeometry width="50" height="50" relative="1" as="geometry">
            <mxPoint x="90" y="40" as="sourcePoint" />
            <mxPoint x="90" as="targetPoint" />
          </mxGeometry>
        </mxCell>
        <mxCell id="XweZ4Oe21oGHiwXUeN7P-184" value="" style="endArrow=none;html=1;rounded=0;" parent="XweZ4Oe21oGHiwXUeN7P-180" edge="1">
          <mxGeometry width="50" height="50" relative="1" as="geometry">
            <mxPoint as="sourcePoint" />
            <mxPoint x="20" as="targetPoint" />
          </mxGeometry>
        </mxCell>
        <mxCell id="XweZ4Oe21oGHiwXUeN7P-185" value="" style="endArrow=none;html=1;rounded=0;" parent="XweZ4Oe21oGHiwXUeN7P-180" edge="1">
          <mxGeometry width="50" height="50" relative="1" as="geometry">
            <mxPoint x="70" as="sourcePoint" />
            <mxPoint x="90" as="targetPoint" />
          </mxGeometry>
        </mxCell>
        <mxCell id="XweZ4Oe21oGHiwXUeN7P-186" value="" style="endArrow=none;html=1;rounded=0;" parent="XweZ4Oe21oGHiwXUeN7P-180" edge="1">
          <mxGeometry width="50" height="50" relative="1" as="geometry">
            <mxPoint x="20" as="sourcePoint" />
            <mxPoint x="20" y="10" as="targetPoint" />
          </mxGeometry>
        </mxCell>
        <mxCell id="XweZ4Oe21oGHiwXUeN7P-187" value="" style="endArrow=none;html=1;rounded=0;" parent="XweZ4Oe21oGHiwXUeN7P-180" edge="1">
          <mxGeometry width="50" height="50" relative="1" as="geometry">
            <mxPoint x="70" as="sourcePoint" />
            <mxPoint x="70" y="10" as="targetPoint" />
          </mxGeometry>
        </mxCell>
        <mxCell id="XweZ4Oe21oGHiwXUeN7P-188" value="" style="endArrow=none;html=1;rounded=0;" parent="XweZ4Oe21oGHiwXUeN7P-180" edge="1">
          <mxGeometry width="50" height="50" relative="1" as="geometry">
            <mxPoint x="20" y="10" as="sourcePoint" />
            <mxPoint x="70" y="10" as="targetPoint" />
          </mxGeometry>
        </mxCell>
        <mxCell id="XweZ4Oe21oGHiwXUeN7P-189" value="" style="ellipse;whiteSpace=wrap;html=1;aspect=fixed;" parent="XweZ4Oe21oGHiwXUeN7P-180" vertex="1">
          <mxGeometry x="40" y="20" width="10" height="10" as="geometry" />
        </mxCell>
        <mxCell id="XweZ4Oe21oGHiwXUeN7P-190" value="" style="ellipse;whiteSpace=wrap;html=1;aspect=fixed;" parent="XweZ4Oe21oGHiwXUeN7P-180" vertex="1">
          <mxGeometry x="60" y="20" width="10" height="10" as="geometry" />
        </mxCell>
        <mxCell id="XweZ4Oe21oGHiwXUeN7P-191" value="" style="ellipse;whiteSpace=wrap;html=1;aspect=fixed;" parent="XweZ4Oe21oGHiwXUeN7P-180" vertex="1">
          <mxGeometry x="20" y="20" width="10" height="10" as="geometry" />
        </mxCell>
        <mxCell id="XweZ4Oe21oGHiwXUeN7P-192" value="" style="group" parent="1" vertex="1" connectable="0">
          <mxGeometry x="223" y="870" width="90" height="40" as="geometry" />
        </mxCell>
        <mxCell id="XweZ4Oe21oGHiwXUeN7P-193" value="" style="endArrow=none;html=1;rounded=0;" parent="XweZ4Oe21oGHiwXUeN7P-192" edge="1">
          <mxGeometry width="50" height="50" relative="1" as="geometry">
            <mxPoint y="40" as="sourcePoint" />
            <mxPoint as="targetPoint" />
          </mxGeometry>
        </mxCell>
        <mxCell id="XweZ4Oe21oGHiwXUeN7P-194" value="" style="endArrow=none;html=1;rounded=0;" parent="XweZ4Oe21oGHiwXUeN7P-192" edge="1">
          <mxGeometry width="50" height="50" relative="1" as="geometry">
            <mxPoint y="40" as="sourcePoint" />
            <mxPoint x="90" y="40" as="targetPoint" />
          </mxGeometry>
        </mxCell>
        <mxCell id="XweZ4Oe21oGHiwXUeN7P-195" value="" style="endArrow=none;html=1;rounded=0;" parent="XweZ4Oe21oGHiwXUeN7P-192" edge="1">
          <mxGeometry width="50" height="50" relative="1" as="geometry">
            <mxPoint x="90" y="40" as="sourcePoint" />
            <mxPoint x="90" as="targetPoint" />
          </mxGeometry>
        </mxCell>
        <mxCell id="XweZ4Oe21oGHiwXUeN7P-196" value="" style="endArrow=none;html=1;rounded=0;" parent="XweZ4Oe21oGHiwXUeN7P-192" edge="1">
          <mxGeometry width="50" height="50" relative="1" as="geometry">
            <mxPoint as="sourcePoint" />
            <mxPoint x="20" as="targetPoint" />
          </mxGeometry>
        </mxCell>
        <mxCell id="XweZ4Oe21oGHiwXUeN7P-197" value="" style="endArrow=none;html=1;rounded=0;" parent="XweZ4Oe21oGHiwXUeN7P-192" edge="1">
          <mxGeometry width="50" height="50" relative="1" as="geometry">
            <mxPoint x="70" as="sourcePoint" />
            <mxPoint x="90" as="targetPoint" />
          </mxGeometry>
        </mxCell>
        <mxCell id="XweZ4Oe21oGHiwXUeN7P-198" value="" style="endArrow=none;html=1;rounded=0;" parent="XweZ4Oe21oGHiwXUeN7P-192" edge="1">
          <mxGeometry width="50" height="50" relative="1" as="geometry">
            <mxPoint x="20" as="sourcePoint" />
            <mxPoint x="20" y="10" as="targetPoint" />
          </mxGeometry>
        </mxCell>
        <mxCell id="XweZ4Oe21oGHiwXUeN7P-199" value="" style="endArrow=none;html=1;rounded=0;" parent="XweZ4Oe21oGHiwXUeN7P-192" edge="1">
          <mxGeometry width="50" height="50" relative="1" as="geometry">
            <mxPoint x="70" as="sourcePoint" />
            <mxPoint x="70" y="10" as="targetPoint" />
          </mxGeometry>
        </mxCell>
        <mxCell id="XweZ4Oe21oGHiwXUeN7P-200" value="" style="endArrow=none;html=1;rounded=0;" parent="XweZ4Oe21oGHiwXUeN7P-192" edge="1">
          <mxGeometry width="50" height="50" relative="1" as="geometry">
            <mxPoint x="20" y="10" as="sourcePoint" />
            <mxPoint x="70" y="10" as="targetPoint" />
          </mxGeometry>
        </mxCell>
        <mxCell id="XweZ4Oe21oGHiwXUeN7P-201" value="" style="ellipse;whiteSpace=wrap;html=1;aspect=fixed;" parent="XweZ4Oe21oGHiwXUeN7P-192" vertex="1">
          <mxGeometry x="40" y="20" width="10" height="10" as="geometry" />
        </mxCell>
        <mxCell id="XweZ4Oe21oGHiwXUeN7P-202" value="" style="ellipse;whiteSpace=wrap;html=1;aspect=fixed;" parent="XweZ4Oe21oGHiwXUeN7P-192" vertex="1">
          <mxGeometry x="60" y="20" width="10" height="10" as="geometry" />
        </mxCell>
        <mxCell id="XweZ4Oe21oGHiwXUeN7P-203" value="" style="ellipse;whiteSpace=wrap;html=1;aspect=fixed;" parent="XweZ4Oe21oGHiwXUeN7P-192" vertex="1">
          <mxGeometry x="20" y="20" width="10" height="10" as="geometry" />
        </mxCell>
        <mxCell id="XweZ4Oe21oGHiwXUeN7P-225" value="" style="group" parent="1" vertex="1" connectable="0">
          <mxGeometry x="363" y="870" width="130" height="40" as="geometry" />
        </mxCell>
        <mxCell id="XweZ4Oe21oGHiwXUeN7P-204" value="" style="endArrow=none;html=1;rounded=0;" parent="XweZ4Oe21oGHiwXUeN7P-225" edge="1">
          <mxGeometry width="50" height="50" relative="1" as="geometry">
            <mxPoint y="40" as="sourcePoint" />
            <mxPoint as="targetPoint" />
          </mxGeometry>
        </mxCell>
        <mxCell id="XweZ4Oe21oGHiwXUeN7P-205" value="" style="endArrow=none;html=1;rounded=0;" parent="XweZ4Oe21oGHiwXUeN7P-225" edge="1">
          <mxGeometry width="50" height="50" relative="1" as="geometry">
            <mxPoint y="40" as="sourcePoint" />
            <mxPoint x="130" y="40" as="targetPoint" />
          </mxGeometry>
        </mxCell>
        <mxCell id="XweZ4Oe21oGHiwXUeN7P-206" value="" style="endArrow=none;html=1;rounded=0;" parent="XweZ4Oe21oGHiwXUeN7P-225" edge="1">
          <mxGeometry width="50" height="50" relative="1" as="geometry">
            <mxPoint x="130" y="40" as="sourcePoint" />
            <mxPoint x="130" as="targetPoint" />
          </mxGeometry>
        </mxCell>
        <mxCell id="XweZ4Oe21oGHiwXUeN7P-207" value="" style="endArrow=none;html=1;rounded=0;" parent="XweZ4Oe21oGHiwXUeN7P-225" edge="1">
          <mxGeometry width="50" height="50" relative="1" as="geometry">
            <mxPoint as="sourcePoint" />
            <mxPoint x="10" as="targetPoint" />
          </mxGeometry>
        </mxCell>
        <mxCell id="XweZ4Oe21oGHiwXUeN7P-208" value="" style="endArrow=none;html=1;rounded=0;" parent="XweZ4Oe21oGHiwXUeN7P-225" edge="1">
          <mxGeometry width="50" height="50" relative="1" as="geometry">
            <mxPoint x="120" as="sourcePoint" />
            <mxPoint x="130" as="targetPoint" />
          </mxGeometry>
        </mxCell>
        <mxCell id="XweZ4Oe21oGHiwXUeN7P-209" value="" style="endArrow=none;html=1;rounded=0;" parent="XweZ4Oe21oGHiwXUeN7P-225" edge="1">
          <mxGeometry width="50" height="50" relative="1" as="geometry">
            <mxPoint x="10" as="sourcePoint" />
            <mxPoint x="10" y="10" as="targetPoint" />
          </mxGeometry>
        </mxCell>
        <mxCell id="XweZ4Oe21oGHiwXUeN7P-210" value="" style="endArrow=none;html=1;rounded=0;" parent="XweZ4Oe21oGHiwXUeN7P-225" edge="1">
          <mxGeometry width="50" height="50" relative="1" as="geometry">
            <mxPoint x="20" as="sourcePoint" />
            <mxPoint x="20" y="10" as="targetPoint" />
          </mxGeometry>
        </mxCell>
        <mxCell id="XweZ4Oe21oGHiwXUeN7P-211" value="" style="endArrow=none;html=1;rounded=0;" parent="XweZ4Oe21oGHiwXUeN7P-225" edge="1">
          <mxGeometry width="50" height="50" relative="1" as="geometry">
            <mxPoint x="10" y="10" as="sourcePoint" />
            <mxPoint x="20" y="10" as="targetPoint" />
          </mxGeometry>
        </mxCell>
        <mxCell id="XweZ4Oe21oGHiwXUeN7P-212" value="" style="ellipse;whiteSpace=wrap;html=1;aspect=fixed;" parent="XweZ4Oe21oGHiwXUeN7P-225" vertex="1">
          <mxGeometry x="40" y="20" width="10" height="10" as="geometry" />
        </mxCell>
        <mxCell id="XweZ4Oe21oGHiwXUeN7P-213" value="" style="ellipse;whiteSpace=wrap;html=1;aspect=fixed;" parent="XweZ4Oe21oGHiwXUeN7P-225" vertex="1">
          <mxGeometry x="60" y="20" width="10" height="10" as="geometry" />
        </mxCell>
        <mxCell id="XweZ4Oe21oGHiwXUeN7P-214" value="" style="ellipse;whiteSpace=wrap;html=1;aspect=fixed;" parent="XweZ4Oe21oGHiwXUeN7P-225" vertex="1">
          <mxGeometry x="20" y="20" width="10" height="10" as="geometry" />
        </mxCell>
        <mxCell id="XweZ4Oe21oGHiwXUeN7P-215" value="" style="ellipse;whiteSpace=wrap;html=1;aspect=fixed;" parent="XweZ4Oe21oGHiwXUeN7P-225" vertex="1">
          <mxGeometry x="80" y="20" width="10" height="10" as="geometry" />
        </mxCell>
        <mxCell id="XweZ4Oe21oGHiwXUeN7P-216" value="" style="ellipse;whiteSpace=wrap;html=1;aspect=fixed;" parent="XweZ4Oe21oGHiwXUeN7P-225" vertex="1">
          <mxGeometry x="100" y="20" width="10" height="10" as="geometry" />
        </mxCell>
        <mxCell id="XweZ4Oe21oGHiwXUeN7P-217" value="" style="endArrow=none;html=1;rounded=0;" parent="XweZ4Oe21oGHiwXUeN7P-225" edge="1">
          <mxGeometry width="50" height="50" relative="1" as="geometry">
            <mxPoint x="110" as="sourcePoint" />
            <mxPoint x="110" y="10" as="targetPoint" />
          </mxGeometry>
        </mxCell>
        <mxCell id="XweZ4Oe21oGHiwXUeN7P-218" value="" style="endArrow=none;html=1;rounded=0;" parent="XweZ4Oe21oGHiwXUeN7P-225" edge="1">
          <mxGeometry width="50" height="50" relative="1" as="geometry">
            <mxPoint x="120" as="sourcePoint" />
            <mxPoint x="120" y="10" as="targetPoint" />
          </mxGeometry>
        </mxCell>
        <mxCell id="XweZ4Oe21oGHiwXUeN7P-219" value="" style="endArrow=none;html=1;rounded=0;" parent="XweZ4Oe21oGHiwXUeN7P-225" edge="1">
          <mxGeometry width="50" height="50" relative="1" as="geometry">
            <mxPoint x="110" y="10" as="sourcePoint" />
            <mxPoint x="120" y="10" as="targetPoint" />
          </mxGeometry>
        </mxCell>
        <mxCell id="XweZ4Oe21oGHiwXUeN7P-224" value="" style="endArrow=none;html=1;rounded=0;" parent="XweZ4Oe21oGHiwXUeN7P-225" edge="1">
          <mxGeometry width="50" height="50" relative="1" as="geometry">
            <mxPoint x="20" as="sourcePoint" />
            <mxPoint x="110" as="targetPoint" />
          </mxGeometry>
        </mxCell>
        <mxCell id="XweZ4Oe21oGHiwXUeN7P-237" value="" style="group" parent="1" vertex="1" connectable="0">
          <mxGeometry x="533" y="470" width="70" height="40" as="geometry" />
        </mxCell>
        <mxCell id="XweZ4Oe21oGHiwXUeN7P-226" value="" style="endArrow=none;html=1;rounded=0;" parent="XweZ4Oe21oGHiwXUeN7P-237" edge="1">
          <mxGeometry width="50" height="50" relative="1" as="geometry">
            <mxPoint y="40" as="sourcePoint" />
            <mxPoint as="targetPoint" />
          </mxGeometry>
        </mxCell>
        <mxCell id="XweZ4Oe21oGHiwXUeN7P-227" value="" style="endArrow=none;html=1;rounded=0;" parent="XweZ4Oe21oGHiwXUeN7P-237" edge="1">
          <mxGeometry width="50" height="50" relative="1" as="geometry">
            <mxPoint y="40" as="sourcePoint" />
            <mxPoint x="70" y="40" as="targetPoint" />
          </mxGeometry>
        </mxCell>
        <mxCell id="XweZ4Oe21oGHiwXUeN7P-228" value="" style="endArrow=none;html=1;rounded=0;" parent="XweZ4Oe21oGHiwXUeN7P-237" edge="1">
          <mxGeometry width="50" height="50" relative="1" as="geometry">
            <mxPoint x="70" y="40" as="sourcePoint" />
            <mxPoint x="70" as="targetPoint" />
          </mxGeometry>
        </mxCell>
        <mxCell id="XweZ4Oe21oGHiwXUeN7P-229" value="" style="endArrow=none;html=1;rounded=0;" parent="XweZ4Oe21oGHiwXUeN7P-237" edge="1">
          <mxGeometry width="50" height="50" relative="1" as="geometry">
            <mxPoint as="sourcePoint" />
            <mxPoint x="20" as="targetPoint" />
          </mxGeometry>
        </mxCell>
        <mxCell id="XweZ4Oe21oGHiwXUeN7P-230" value="" style="endArrow=none;html=1;rounded=0;" parent="XweZ4Oe21oGHiwXUeN7P-237" edge="1">
          <mxGeometry width="50" height="50" relative="1" as="geometry">
            <mxPoint x="70" y="-10" as="sourcePoint" />
            <mxPoint x="50" y="-10" as="targetPoint" />
          </mxGeometry>
        </mxCell>
        <mxCell id="XweZ4Oe21oGHiwXUeN7P-231" value="" style="endArrow=none;html=1;rounded=0;" parent="XweZ4Oe21oGHiwXUeN7P-237" edge="1">
          <mxGeometry width="50" height="50" relative="1" as="geometry">
            <mxPoint x="20" as="sourcePoint" />
            <mxPoint x="20" y="10" as="targetPoint" />
          </mxGeometry>
        </mxCell>
        <mxCell id="XweZ4Oe21oGHiwXUeN7P-232" value="" style="endArrow=none;html=1;rounded=0;" parent="XweZ4Oe21oGHiwXUeN7P-237" edge="1">
          <mxGeometry width="50" height="50" relative="1" as="geometry">
            <mxPoint x="50" as="sourcePoint" />
            <mxPoint x="50" y="10" as="targetPoint" />
          </mxGeometry>
        </mxCell>
        <mxCell id="XweZ4Oe21oGHiwXUeN7P-233" value="" style="endArrow=none;html=1;rounded=0;" parent="XweZ4Oe21oGHiwXUeN7P-237" edge="1">
          <mxGeometry width="50" height="50" relative="1" as="geometry">
            <mxPoint x="20" y="10" as="sourcePoint" />
            <mxPoint x="50" y="10" as="targetPoint" />
          </mxGeometry>
        </mxCell>
        <mxCell id="XweZ4Oe21oGHiwXUeN7P-234" value="" style="ellipse;whiteSpace=wrap;html=1;aspect=fixed;" parent="XweZ4Oe21oGHiwXUeN7P-237" vertex="1">
          <mxGeometry x="40" y="20" width="10" height="10" as="geometry" />
        </mxCell>
        <mxCell id="XweZ4Oe21oGHiwXUeN7P-236" value="" style="ellipse;whiteSpace=wrap;html=1;aspect=fixed;" parent="XweZ4Oe21oGHiwXUeN7P-237" vertex="1">
          <mxGeometry x="20" y="20" width="10" height="10" as="geometry" />
        </mxCell>
        <mxCell id="XweZ4Oe21oGHiwXUeN7P-238" value="" style="group" parent="1" vertex="1" connectable="0">
          <mxGeometry x="533" y="520" width="70" height="40" as="geometry" />
        </mxCell>
        <mxCell id="XweZ4Oe21oGHiwXUeN7P-239" value="" style="endArrow=none;html=1;rounded=0;" parent="XweZ4Oe21oGHiwXUeN7P-238" edge="1">
          <mxGeometry width="50" height="50" relative="1" as="geometry">
            <mxPoint y="40" as="sourcePoint" />
            <mxPoint as="targetPoint" />
          </mxGeometry>
        </mxCell>
        <mxCell id="XweZ4Oe21oGHiwXUeN7P-240" value="" style="endArrow=none;html=1;rounded=0;" parent="XweZ4Oe21oGHiwXUeN7P-238" edge="1">
          <mxGeometry width="50" height="50" relative="1" as="geometry">
            <mxPoint y="40" as="sourcePoint" />
            <mxPoint x="70" y="40" as="targetPoint" />
          </mxGeometry>
        </mxCell>
        <mxCell id="XweZ4Oe21oGHiwXUeN7P-241" value="" style="endArrow=none;html=1;rounded=0;" parent="XweZ4Oe21oGHiwXUeN7P-238" edge="1">
          <mxGeometry width="50" height="50" relative="1" as="geometry">
            <mxPoint x="70" y="40" as="sourcePoint" />
            <mxPoint x="70" as="targetPoint" />
          </mxGeometry>
        </mxCell>
        <mxCell id="XweZ4Oe21oGHiwXUeN7P-242" value="" style="endArrow=none;html=1;rounded=0;" parent="XweZ4Oe21oGHiwXUeN7P-238" edge="1">
          <mxGeometry width="50" height="50" relative="1" as="geometry">
            <mxPoint as="sourcePoint" />
            <mxPoint x="20" as="targetPoint" />
          </mxGeometry>
        </mxCell>
        <mxCell id="XweZ4Oe21oGHiwXUeN7P-243" value="" style="endArrow=none;html=1;rounded=0;" parent="XweZ4Oe21oGHiwXUeN7P-238" edge="1">
          <mxGeometry width="50" height="50" relative="1" as="geometry">
            <mxPoint x="70" as="sourcePoint" />
            <mxPoint x="50" as="targetPoint" />
          </mxGeometry>
        </mxCell>
        <mxCell id="XweZ4Oe21oGHiwXUeN7P-244" value="" style="endArrow=none;html=1;rounded=0;" parent="XweZ4Oe21oGHiwXUeN7P-238" edge="1">
          <mxGeometry width="50" height="50" relative="1" as="geometry">
            <mxPoint x="20" as="sourcePoint" />
            <mxPoint x="20" y="10" as="targetPoint" />
          </mxGeometry>
        </mxCell>
        <mxCell id="XweZ4Oe21oGHiwXUeN7P-245" value="" style="endArrow=none;html=1;rounded=0;" parent="XweZ4Oe21oGHiwXUeN7P-238" edge="1">
          <mxGeometry width="50" height="50" relative="1" as="geometry">
            <mxPoint x="50" as="sourcePoint" />
            <mxPoint x="50" y="10" as="targetPoint" />
          </mxGeometry>
        </mxCell>
        <mxCell id="XweZ4Oe21oGHiwXUeN7P-246" value="" style="endArrow=none;html=1;rounded=0;" parent="XweZ4Oe21oGHiwXUeN7P-238" edge="1">
          <mxGeometry width="50" height="50" relative="1" as="geometry">
            <mxPoint x="20" y="10" as="sourcePoint" />
            <mxPoint x="50" y="10" as="targetPoint" />
          </mxGeometry>
        </mxCell>
        <mxCell id="XweZ4Oe21oGHiwXUeN7P-247" value="" style="ellipse;whiteSpace=wrap;html=1;aspect=fixed;" parent="XweZ4Oe21oGHiwXUeN7P-238" vertex="1">
          <mxGeometry x="40" y="20" width="10" height="10" as="geometry" />
        </mxCell>
        <mxCell id="XweZ4Oe21oGHiwXUeN7P-248" value="" style="ellipse;whiteSpace=wrap;html=1;aspect=fixed;" parent="XweZ4Oe21oGHiwXUeN7P-238" vertex="1">
          <mxGeometry x="20" y="20" width="10" height="10" as="geometry" />
        </mxCell>
        <mxCell id="XweZ4Oe21oGHiwXUeN7P-249" value="" style="group" parent="1" vertex="1" connectable="0">
          <mxGeometry x="533" y="570" width="70" height="40" as="geometry" />
        </mxCell>
        <mxCell id="XweZ4Oe21oGHiwXUeN7P-250" value="" style="endArrow=none;html=1;rounded=0;" parent="XweZ4Oe21oGHiwXUeN7P-249" edge="1">
          <mxGeometry width="50" height="50" relative="1" as="geometry">
            <mxPoint y="40" as="sourcePoint" />
            <mxPoint as="targetPoint" />
          </mxGeometry>
        </mxCell>
        <mxCell id="XweZ4Oe21oGHiwXUeN7P-251" value="" style="endArrow=none;html=1;rounded=0;" parent="XweZ4Oe21oGHiwXUeN7P-249" edge="1">
          <mxGeometry width="50" height="50" relative="1" as="geometry">
            <mxPoint y="40" as="sourcePoint" />
            <mxPoint x="70" y="40" as="targetPoint" />
          </mxGeometry>
        </mxCell>
        <mxCell id="XweZ4Oe21oGHiwXUeN7P-252" value="" style="endArrow=none;html=1;rounded=0;" parent="XweZ4Oe21oGHiwXUeN7P-249" edge="1">
          <mxGeometry width="50" height="50" relative="1" as="geometry">
            <mxPoint x="70" y="40" as="sourcePoint" />
            <mxPoint x="70" as="targetPoint" />
          </mxGeometry>
        </mxCell>
        <mxCell id="XweZ4Oe21oGHiwXUeN7P-253" value="" style="endArrow=none;html=1;rounded=0;" parent="XweZ4Oe21oGHiwXUeN7P-249" edge="1">
          <mxGeometry width="50" height="50" relative="1" as="geometry">
            <mxPoint as="sourcePoint" />
            <mxPoint x="20" as="targetPoint" />
          </mxGeometry>
        </mxCell>
        <mxCell id="XweZ4Oe21oGHiwXUeN7P-254" value="" style="endArrow=none;html=1;rounded=0;" parent="XweZ4Oe21oGHiwXUeN7P-249" edge="1">
          <mxGeometry width="50" height="50" relative="1" as="geometry">
            <mxPoint x="70" as="sourcePoint" />
            <mxPoint x="50" as="targetPoint" />
          </mxGeometry>
        </mxCell>
        <mxCell id="XweZ4Oe21oGHiwXUeN7P-255" value="" style="endArrow=none;html=1;rounded=0;" parent="XweZ4Oe21oGHiwXUeN7P-249" edge="1">
          <mxGeometry width="50" height="50" relative="1" as="geometry">
            <mxPoint x="20" as="sourcePoint" />
            <mxPoint x="20" y="10" as="targetPoint" />
          </mxGeometry>
        </mxCell>
        <mxCell id="XweZ4Oe21oGHiwXUeN7P-256" value="" style="endArrow=none;html=1;rounded=0;" parent="XweZ4Oe21oGHiwXUeN7P-249" edge="1">
          <mxGeometry width="50" height="50" relative="1" as="geometry">
            <mxPoint x="50" as="sourcePoint" />
            <mxPoint x="50" y="10" as="targetPoint" />
          </mxGeometry>
        </mxCell>
        <mxCell id="XweZ4Oe21oGHiwXUeN7P-257" value="" style="endArrow=none;html=1;rounded=0;" parent="XweZ4Oe21oGHiwXUeN7P-249" edge="1">
          <mxGeometry width="50" height="50" relative="1" as="geometry">
            <mxPoint x="20" y="10" as="sourcePoint" />
            <mxPoint x="50" y="10" as="targetPoint" />
          </mxGeometry>
        </mxCell>
        <mxCell id="XweZ4Oe21oGHiwXUeN7P-258" value="" style="ellipse;whiteSpace=wrap;html=1;aspect=fixed;" parent="XweZ4Oe21oGHiwXUeN7P-249" vertex="1">
          <mxGeometry x="40" y="20" width="10" height="10" as="geometry" />
        </mxCell>
        <mxCell id="XweZ4Oe21oGHiwXUeN7P-259" value="" style="ellipse;whiteSpace=wrap;html=1;aspect=fixed;" parent="XweZ4Oe21oGHiwXUeN7P-249" vertex="1">
          <mxGeometry x="20" y="20" width="10" height="10" as="geometry" />
        </mxCell>
        <mxCell id="XweZ4Oe21oGHiwXUeN7P-260" value="" style="group" parent="1" vertex="1" connectable="0">
          <mxGeometry x="533" y="620" width="70" height="40" as="geometry" />
        </mxCell>
        <mxCell id="XweZ4Oe21oGHiwXUeN7P-261" value="" style="endArrow=none;html=1;rounded=0;" parent="XweZ4Oe21oGHiwXUeN7P-260" edge="1">
          <mxGeometry width="50" height="50" relative="1" as="geometry">
            <mxPoint y="40" as="sourcePoint" />
            <mxPoint as="targetPoint" />
          </mxGeometry>
        </mxCell>
        <mxCell id="XweZ4Oe21oGHiwXUeN7P-262" value="" style="endArrow=none;html=1;rounded=0;" parent="XweZ4Oe21oGHiwXUeN7P-260" edge="1">
          <mxGeometry width="50" height="50" relative="1" as="geometry">
            <mxPoint y="40" as="sourcePoint" />
            <mxPoint x="70" y="40" as="targetPoint" />
          </mxGeometry>
        </mxCell>
        <mxCell id="XweZ4Oe21oGHiwXUeN7P-263" value="" style="endArrow=none;html=1;rounded=0;" parent="XweZ4Oe21oGHiwXUeN7P-260" edge="1">
          <mxGeometry width="50" height="50" relative="1" as="geometry">
            <mxPoint x="70" y="40" as="sourcePoint" />
            <mxPoint x="70" as="targetPoint" />
          </mxGeometry>
        </mxCell>
        <mxCell id="XweZ4Oe21oGHiwXUeN7P-264" value="" style="endArrow=none;html=1;rounded=0;" parent="XweZ4Oe21oGHiwXUeN7P-260" edge="1">
          <mxGeometry width="50" height="50" relative="1" as="geometry">
            <mxPoint as="sourcePoint" />
            <mxPoint x="20" as="targetPoint" />
          </mxGeometry>
        </mxCell>
        <mxCell id="XweZ4Oe21oGHiwXUeN7P-265" value="" style="endArrow=none;html=1;rounded=0;" parent="XweZ4Oe21oGHiwXUeN7P-260" edge="1">
          <mxGeometry width="50" height="50" relative="1" as="geometry">
            <mxPoint x="70" as="sourcePoint" />
            <mxPoint x="50" as="targetPoint" />
          </mxGeometry>
        </mxCell>
        <mxCell id="XweZ4Oe21oGHiwXUeN7P-266" value="" style="endArrow=none;html=1;rounded=0;" parent="XweZ4Oe21oGHiwXUeN7P-260" edge="1">
          <mxGeometry width="50" height="50" relative="1" as="geometry">
            <mxPoint x="20" as="sourcePoint" />
            <mxPoint x="20" y="10" as="targetPoint" />
          </mxGeometry>
        </mxCell>
        <mxCell id="XweZ4Oe21oGHiwXUeN7P-267" value="" style="endArrow=none;html=1;rounded=0;" parent="XweZ4Oe21oGHiwXUeN7P-260" edge="1">
          <mxGeometry width="50" height="50" relative="1" as="geometry">
            <mxPoint x="50" as="sourcePoint" />
            <mxPoint x="50" y="10" as="targetPoint" />
          </mxGeometry>
        </mxCell>
        <mxCell id="XweZ4Oe21oGHiwXUeN7P-268" value="" style="endArrow=none;html=1;rounded=0;" parent="XweZ4Oe21oGHiwXUeN7P-260" edge="1">
          <mxGeometry width="50" height="50" relative="1" as="geometry">
            <mxPoint x="20" y="10" as="sourcePoint" />
            <mxPoint x="50" y="10" as="targetPoint" />
          </mxGeometry>
        </mxCell>
        <mxCell id="XweZ4Oe21oGHiwXUeN7P-269" value="" style="ellipse;whiteSpace=wrap;html=1;aspect=fixed;" parent="XweZ4Oe21oGHiwXUeN7P-260" vertex="1">
          <mxGeometry x="40" y="20" width="10" height="10" as="geometry" />
        </mxCell>
        <mxCell id="XweZ4Oe21oGHiwXUeN7P-270" value="" style="ellipse;whiteSpace=wrap;html=1;aspect=fixed;" parent="XweZ4Oe21oGHiwXUeN7P-260" vertex="1">
          <mxGeometry x="20" y="20" width="10" height="10" as="geometry" />
        </mxCell>
        <mxCell id="XweZ4Oe21oGHiwXUeN7P-271" value="" style="group" parent="1" vertex="1" connectable="0">
          <mxGeometry x="533" y="670" width="70" height="40" as="geometry" />
        </mxCell>
        <mxCell id="XweZ4Oe21oGHiwXUeN7P-272" value="" style="endArrow=none;html=1;rounded=0;" parent="XweZ4Oe21oGHiwXUeN7P-271" edge="1">
          <mxGeometry width="50" height="50" relative="1" as="geometry">
            <mxPoint y="40" as="sourcePoint" />
            <mxPoint as="targetPoint" />
          </mxGeometry>
        </mxCell>
        <mxCell id="XweZ4Oe21oGHiwXUeN7P-273" value="" style="endArrow=none;html=1;rounded=0;" parent="XweZ4Oe21oGHiwXUeN7P-271" edge="1">
          <mxGeometry width="50" height="50" relative="1" as="geometry">
            <mxPoint y="40" as="sourcePoint" />
            <mxPoint x="70" y="40" as="targetPoint" />
          </mxGeometry>
        </mxCell>
        <mxCell id="XweZ4Oe21oGHiwXUeN7P-274" value="" style="endArrow=none;html=1;rounded=0;" parent="XweZ4Oe21oGHiwXUeN7P-271" edge="1">
          <mxGeometry width="50" height="50" relative="1" as="geometry">
            <mxPoint x="70" y="40" as="sourcePoint" />
            <mxPoint x="70" as="targetPoint" />
          </mxGeometry>
        </mxCell>
        <mxCell id="XweZ4Oe21oGHiwXUeN7P-275" value="" style="endArrow=none;html=1;rounded=0;" parent="XweZ4Oe21oGHiwXUeN7P-271" edge="1">
          <mxGeometry width="50" height="50" relative="1" as="geometry">
            <mxPoint as="sourcePoint" />
            <mxPoint x="20" as="targetPoint" />
          </mxGeometry>
        </mxCell>
        <mxCell id="XweZ4Oe21oGHiwXUeN7P-276" value="" style="endArrow=none;html=1;rounded=0;" parent="XweZ4Oe21oGHiwXUeN7P-271" edge="1">
          <mxGeometry width="50" height="50" relative="1" as="geometry">
            <mxPoint x="70" as="sourcePoint" />
            <mxPoint x="50" as="targetPoint" />
          </mxGeometry>
        </mxCell>
        <mxCell id="XweZ4Oe21oGHiwXUeN7P-277" value="" style="endArrow=none;html=1;rounded=0;" parent="XweZ4Oe21oGHiwXUeN7P-271" edge="1">
          <mxGeometry width="50" height="50" relative="1" as="geometry">
            <mxPoint x="20" as="sourcePoint" />
            <mxPoint x="20" y="10" as="targetPoint" />
          </mxGeometry>
        </mxCell>
        <mxCell id="XweZ4Oe21oGHiwXUeN7P-278" value="" style="endArrow=none;html=1;rounded=0;" parent="XweZ4Oe21oGHiwXUeN7P-271" edge="1">
          <mxGeometry width="50" height="50" relative="1" as="geometry">
            <mxPoint x="50" as="sourcePoint" />
            <mxPoint x="50" y="10" as="targetPoint" />
          </mxGeometry>
        </mxCell>
        <mxCell id="XweZ4Oe21oGHiwXUeN7P-279" value="" style="endArrow=none;html=1;rounded=0;" parent="XweZ4Oe21oGHiwXUeN7P-271" edge="1">
          <mxGeometry width="50" height="50" relative="1" as="geometry">
            <mxPoint x="20" y="10" as="sourcePoint" />
            <mxPoint x="50" y="10" as="targetPoint" />
          </mxGeometry>
        </mxCell>
        <mxCell id="XweZ4Oe21oGHiwXUeN7P-280" value="" style="ellipse;whiteSpace=wrap;html=1;aspect=fixed;" parent="XweZ4Oe21oGHiwXUeN7P-271" vertex="1">
          <mxGeometry x="40" y="20" width="10" height="10" as="geometry" />
        </mxCell>
        <mxCell id="XweZ4Oe21oGHiwXUeN7P-281" value="" style="ellipse;whiteSpace=wrap;html=1;aspect=fixed;" parent="XweZ4Oe21oGHiwXUeN7P-271" vertex="1">
          <mxGeometry x="20" y="20" width="10" height="10" as="geometry" />
        </mxCell>
        <mxCell id="XweZ4Oe21oGHiwXUeN7P-282" value="" style="group" parent="1" vertex="1" connectable="0">
          <mxGeometry x="533" y="720" width="70" height="40" as="geometry" />
        </mxCell>
        <mxCell id="XweZ4Oe21oGHiwXUeN7P-283" value="" style="endArrow=none;html=1;rounded=0;" parent="XweZ4Oe21oGHiwXUeN7P-282" edge="1">
          <mxGeometry width="50" height="50" relative="1" as="geometry">
            <mxPoint y="40" as="sourcePoint" />
            <mxPoint as="targetPoint" />
          </mxGeometry>
        </mxCell>
        <mxCell id="XweZ4Oe21oGHiwXUeN7P-284" value="" style="endArrow=none;html=1;rounded=0;" parent="XweZ4Oe21oGHiwXUeN7P-282" edge="1">
          <mxGeometry width="50" height="50" relative="1" as="geometry">
            <mxPoint y="40" as="sourcePoint" />
            <mxPoint x="70" y="40" as="targetPoint" />
          </mxGeometry>
        </mxCell>
        <mxCell id="XweZ4Oe21oGHiwXUeN7P-285" value="" style="endArrow=none;html=1;rounded=0;" parent="XweZ4Oe21oGHiwXUeN7P-282" edge="1">
          <mxGeometry width="50" height="50" relative="1" as="geometry">
            <mxPoint x="70" y="40" as="sourcePoint" />
            <mxPoint x="70" as="targetPoint" />
          </mxGeometry>
        </mxCell>
        <mxCell id="XweZ4Oe21oGHiwXUeN7P-286" value="" style="endArrow=none;html=1;rounded=0;" parent="XweZ4Oe21oGHiwXUeN7P-282" edge="1">
          <mxGeometry width="50" height="50" relative="1" as="geometry">
            <mxPoint as="sourcePoint" />
            <mxPoint x="20" as="targetPoint" />
          </mxGeometry>
        </mxCell>
        <mxCell id="XweZ4Oe21oGHiwXUeN7P-287" value="" style="endArrow=none;html=1;rounded=0;" parent="XweZ4Oe21oGHiwXUeN7P-282" edge="1">
          <mxGeometry width="50" height="50" relative="1" as="geometry">
            <mxPoint x="70" as="sourcePoint" />
            <mxPoint x="50" as="targetPoint" />
          </mxGeometry>
        </mxCell>
        <mxCell id="XweZ4Oe21oGHiwXUeN7P-288" value="" style="endArrow=none;html=1;rounded=0;" parent="XweZ4Oe21oGHiwXUeN7P-282" edge="1">
          <mxGeometry width="50" height="50" relative="1" as="geometry">
            <mxPoint x="20" as="sourcePoint" />
            <mxPoint x="20" y="10" as="targetPoint" />
          </mxGeometry>
        </mxCell>
        <mxCell id="XweZ4Oe21oGHiwXUeN7P-289" value="" style="endArrow=none;html=1;rounded=0;" parent="XweZ4Oe21oGHiwXUeN7P-282" edge="1">
          <mxGeometry width="50" height="50" relative="1" as="geometry">
            <mxPoint x="50" as="sourcePoint" />
            <mxPoint x="50" y="10" as="targetPoint" />
          </mxGeometry>
        </mxCell>
        <mxCell id="XweZ4Oe21oGHiwXUeN7P-290" value="" style="endArrow=none;html=1;rounded=0;" parent="XweZ4Oe21oGHiwXUeN7P-282" edge="1">
          <mxGeometry width="50" height="50" relative="1" as="geometry">
            <mxPoint x="20" y="10" as="sourcePoint" />
            <mxPoint x="50" y="10" as="targetPoint" />
          </mxGeometry>
        </mxCell>
        <mxCell id="XweZ4Oe21oGHiwXUeN7P-291" value="" style="ellipse;whiteSpace=wrap;html=1;aspect=fixed;" parent="XweZ4Oe21oGHiwXUeN7P-282" vertex="1">
          <mxGeometry x="40" y="20" width="10" height="10" as="geometry" />
        </mxCell>
        <mxCell id="XweZ4Oe21oGHiwXUeN7P-292" value="" style="ellipse;whiteSpace=wrap;html=1;aspect=fixed;" parent="XweZ4Oe21oGHiwXUeN7P-282" vertex="1">
          <mxGeometry x="20" y="20" width="10" height="10" as="geometry" />
        </mxCell>
        <mxCell id="XweZ4Oe21oGHiwXUeN7P-293" value="" style="group" parent="1" vertex="1" connectable="0">
          <mxGeometry x="533" y="770" width="70" height="40" as="geometry" />
        </mxCell>
        <mxCell id="XweZ4Oe21oGHiwXUeN7P-294" value="" style="endArrow=none;html=1;rounded=0;" parent="XweZ4Oe21oGHiwXUeN7P-293" edge="1">
          <mxGeometry width="50" height="50" relative="1" as="geometry">
            <mxPoint y="40" as="sourcePoint" />
            <mxPoint as="targetPoint" />
          </mxGeometry>
        </mxCell>
        <mxCell id="XweZ4Oe21oGHiwXUeN7P-295" value="" style="endArrow=none;html=1;rounded=0;" parent="XweZ4Oe21oGHiwXUeN7P-293" edge="1">
          <mxGeometry width="50" height="50" relative="1" as="geometry">
            <mxPoint y="40" as="sourcePoint" />
            <mxPoint x="70" y="40" as="targetPoint" />
          </mxGeometry>
        </mxCell>
        <mxCell id="XweZ4Oe21oGHiwXUeN7P-296" value="" style="endArrow=none;html=1;rounded=0;" parent="XweZ4Oe21oGHiwXUeN7P-293" edge="1">
          <mxGeometry width="50" height="50" relative="1" as="geometry">
            <mxPoint x="70" y="40" as="sourcePoint" />
            <mxPoint x="70" as="targetPoint" />
          </mxGeometry>
        </mxCell>
        <mxCell id="XweZ4Oe21oGHiwXUeN7P-297" value="" style="endArrow=none;html=1;rounded=0;" parent="XweZ4Oe21oGHiwXUeN7P-293" edge="1">
          <mxGeometry width="50" height="50" relative="1" as="geometry">
            <mxPoint as="sourcePoint" />
            <mxPoint x="20" as="targetPoint" />
          </mxGeometry>
        </mxCell>
        <mxCell id="XweZ4Oe21oGHiwXUeN7P-298" value="" style="endArrow=none;html=1;rounded=0;" parent="XweZ4Oe21oGHiwXUeN7P-293" edge="1">
          <mxGeometry width="50" height="50" relative="1" as="geometry">
            <mxPoint x="70" as="sourcePoint" />
            <mxPoint x="50" as="targetPoint" />
          </mxGeometry>
        </mxCell>
        <mxCell id="XweZ4Oe21oGHiwXUeN7P-299" value="" style="endArrow=none;html=1;rounded=0;" parent="XweZ4Oe21oGHiwXUeN7P-293" edge="1">
          <mxGeometry width="50" height="50" relative="1" as="geometry">
            <mxPoint x="20" as="sourcePoint" />
            <mxPoint x="20" y="10" as="targetPoint" />
          </mxGeometry>
        </mxCell>
        <mxCell id="XweZ4Oe21oGHiwXUeN7P-300" value="" style="endArrow=none;html=1;rounded=0;" parent="XweZ4Oe21oGHiwXUeN7P-293" edge="1">
          <mxGeometry width="50" height="50" relative="1" as="geometry">
            <mxPoint x="50" as="sourcePoint" />
            <mxPoint x="50" y="10" as="targetPoint" />
          </mxGeometry>
        </mxCell>
        <mxCell id="XweZ4Oe21oGHiwXUeN7P-301" value="" style="endArrow=none;html=1;rounded=0;" parent="XweZ4Oe21oGHiwXUeN7P-293" edge="1">
          <mxGeometry width="50" height="50" relative="1" as="geometry">
            <mxPoint x="20" y="10" as="sourcePoint" />
            <mxPoint x="50" y="10" as="targetPoint" />
          </mxGeometry>
        </mxCell>
        <mxCell id="XweZ4Oe21oGHiwXUeN7P-302" value="" style="ellipse;whiteSpace=wrap;html=1;aspect=fixed;" parent="XweZ4Oe21oGHiwXUeN7P-293" vertex="1">
          <mxGeometry x="40" y="20" width="10" height="10" as="geometry" />
        </mxCell>
        <mxCell id="XweZ4Oe21oGHiwXUeN7P-303" value="" style="ellipse;whiteSpace=wrap;html=1;aspect=fixed;" parent="XweZ4Oe21oGHiwXUeN7P-293" vertex="1">
          <mxGeometry x="20" y="20" width="10" height="10" as="geometry" />
        </mxCell>
        <mxCell id="XweZ4Oe21oGHiwXUeN7P-304" value="" style="group" parent="1" vertex="1" connectable="0">
          <mxGeometry x="533" y="820" width="70" height="40" as="geometry" />
        </mxCell>
        <mxCell id="XweZ4Oe21oGHiwXUeN7P-305" value="" style="endArrow=none;html=1;rounded=0;" parent="XweZ4Oe21oGHiwXUeN7P-304" edge="1">
          <mxGeometry width="50" height="50" relative="1" as="geometry">
            <mxPoint y="40" as="sourcePoint" />
            <mxPoint as="targetPoint" />
          </mxGeometry>
        </mxCell>
        <mxCell id="XweZ4Oe21oGHiwXUeN7P-306" value="" style="endArrow=none;html=1;rounded=0;" parent="XweZ4Oe21oGHiwXUeN7P-304" edge="1">
          <mxGeometry width="50" height="50" relative="1" as="geometry">
            <mxPoint y="40" as="sourcePoint" />
            <mxPoint x="70" y="40" as="targetPoint" />
          </mxGeometry>
        </mxCell>
        <mxCell id="XweZ4Oe21oGHiwXUeN7P-307" value="" style="endArrow=none;html=1;rounded=0;" parent="XweZ4Oe21oGHiwXUeN7P-304" edge="1">
          <mxGeometry width="50" height="50" relative="1" as="geometry">
            <mxPoint x="70" y="40" as="sourcePoint" />
            <mxPoint x="70" as="targetPoint" />
          </mxGeometry>
        </mxCell>
        <mxCell id="XweZ4Oe21oGHiwXUeN7P-308" value="" style="endArrow=none;html=1;rounded=0;" parent="XweZ4Oe21oGHiwXUeN7P-304" edge="1">
          <mxGeometry width="50" height="50" relative="1" as="geometry">
            <mxPoint as="sourcePoint" />
            <mxPoint x="20" as="targetPoint" />
          </mxGeometry>
        </mxCell>
        <mxCell id="XweZ4Oe21oGHiwXUeN7P-309" value="" style="endArrow=none;html=1;rounded=0;" parent="XweZ4Oe21oGHiwXUeN7P-304" edge="1">
          <mxGeometry width="50" height="50" relative="1" as="geometry">
            <mxPoint x="70" as="sourcePoint" />
            <mxPoint x="50" as="targetPoint" />
          </mxGeometry>
        </mxCell>
        <mxCell id="XweZ4Oe21oGHiwXUeN7P-310" value="" style="endArrow=none;html=1;rounded=0;" parent="XweZ4Oe21oGHiwXUeN7P-304" edge="1">
          <mxGeometry width="50" height="50" relative="1" as="geometry">
            <mxPoint x="20" as="sourcePoint" />
            <mxPoint x="20" y="10" as="targetPoint" />
          </mxGeometry>
        </mxCell>
        <mxCell id="XweZ4Oe21oGHiwXUeN7P-311" value="" style="endArrow=none;html=1;rounded=0;" parent="XweZ4Oe21oGHiwXUeN7P-304" edge="1">
          <mxGeometry width="50" height="50" relative="1" as="geometry">
            <mxPoint x="50" as="sourcePoint" />
            <mxPoint x="50" y="10" as="targetPoint" />
          </mxGeometry>
        </mxCell>
        <mxCell id="XweZ4Oe21oGHiwXUeN7P-312" value="" style="endArrow=none;html=1;rounded=0;" parent="XweZ4Oe21oGHiwXUeN7P-304" edge="1">
          <mxGeometry width="50" height="50" relative="1" as="geometry">
            <mxPoint x="20" y="10" as="sourcePoint" />
            <mxPoint x="50" y="10" as="targetPoint" />
          </mxGeometry>
        </mxCell>
        <mxCell id="XweZ4Oe21oGHiwXUeN7P-313" value="" style="ellipse;whiteSpace=wrap;html=1;aspect=fixed;" parent="XweZ4Oe21oGHiwXUeN7P-304" vertex="1">
          <mxGeometry x="40" y="20" width="10" height="10" as="geometry" />
        </mxCell>
        <mxCell id="XweZ4Oe21oGHiwXUeN7P-314" value="" style="ellipse;whiteSpace=wrap;html=1;aspect=fixed;" parent="XweZ4Oe21oGHiwXUeN7P-304" vertex="1">
          <mxGeometry x="20" y="20" width="10" height="10" as="geometry" />
        </mxCell>
        <mxCell id="XweZ4Oe21oGHiwXUeN7P-328" value="" style="group" parent="1" vertex="1" connectable="0">
          <mxGeometry x="533" y="870" width="70" height="40" as="geometry" />
        </mxCell>
        <mxCell id="XweZ4Oe21oGHiwXUeN7P-326" value="" style="rounded=0;whiteSpace=wrap;html=1;strokeColor=#6F0000;fillColor=#a20025;fontColor=#ffffff;" parent="XweZ4Oe21oGHiwXUeN7P-328" vertex="1">
          <mxGeometry x="50" width="20" height="10" as="geometry" />
        </mxCell>
        <mxCell id="XweZ4Oe21oGHiwXUeN7P-327" value="" style="rounded=0;whiteSpace=wrap;html=1;strokeColor=#6F0000;fillColor=#a20025;fontColor=#ffffff;" parent="XweZ4Oe21oGHiwXUeN7P-328" vertex="1">
          <mxGeometry width="20" height="10" as="geometry" />
        </mxCell>
        <mxCell id="XweZ4Oe21oGHiwXUeN7P-315" value="" style="group;fillColor=#a20025;container=0;fontColor=#ffffff;strokeColor=#6F0000;" parent="XweZ4Oe21oGHiwXUeN7P-328" vertex="1" connectable="0">
          <mxGeometry y="10" width="70" height="30" as="geometry" />
        </mxCell>
        <mxCell id="XweZ4Oe21oGHiwXUeN7P-316" value="" style="endArrow=none;html=1;rounded=0;" parent="XweZ4Oe21oGHiwXUeN7P-328" edge="1">
          <mxGeometry width="50" height="50" relative="1" as="geometry">
            <mxPoint y="40" as="sourcePoint" />
            <mxPoint as="targetPoint" />
          </mxGeometry>
        </mxCell>
        <mxCell id="XweZ4Oe21oGHiwXUeN7P-317" value="" style="endArrow=none;html=1;rounded=0;" parent="XweZ4Oe21oGHiwXUeN7P-328" edge="1">
          <mxGeometry width="50" height="50" relative="1" as="geometry">
            <mxPoint y="40" as="sourcePoint" />
            <mxPoint x="70" y="40" as="targetPoint" />
          </mxGeometry>
        </mxCell>
        <mxCell id="XweZ4Oe21oGHiwXUeN7P-318" value="" style="endArrow=none;html=1;rounded=0;" parent="XweZ4Oe21oGHiwXUeN7P-328" edge="1">
          <mxGeometry width="50" height="50" relative="1" as="geometry">
            <mxPoint x="70" y="40" as="sourcePoint" />
            <mxPoint x="70" as="targetPoint" />
          </mxGeometry>
        </mxCell>
        <mxCell id="XweZ4Oe21oGHiwXUeN7P-319" value="" style="endArrow=none;html=1;rounded=0;" parent="XweZ4Oe21oGHiwXUeN7P-328" edge="1">
          <mxGeometry width="50" height="50" relative="1" as="geometry">
            <mxPoint as="sourcePoint" />
            <mxPoint x="20" as="targetPoint" />
          </mxGeometry>
        </mxCell>
        <mxCell id="XweZ4Oe21oGHiwXUeN7P-320" value="" style="endArrow=none;html=1;rounded=0;" parent="XweZ4Oe21oGHiwXUeN7P-328" edge="1">
          <mxGeometry width="50" height="50" relative="1" as="geometry">
            <mxPoint x="70" as="sourcePoint" />
            <mxPoint x="50" as="targetPoint" />
          </mxGeometry>
        </mxCell>
        <mxCell id="XweZ4Oe21oGHiwXUeN7P-321" value="" style="endArrow=none;html=1;rounded=0;" parent="XweZ4Oe21oGHiwXUeN7P-328" edge="1">
          <mxGeometry width="50" height="50" relative="1" as="geometry">
            <mxPoint x="20" as="sourcePoint" />
            <mxPoint x="20" y="10" as="targetPoint" />
          </mxGeometry>
        </mxCell>
        <mxCell id="XweZ4Oe21oGHiwXUeN7P-322" value="" style="endArrow=none;html=1;rounded=0;" parent="XweZ4Oe21oGHiwXUeN7P-328" edge="1">
          <mxGeometry width="50" height="50" relative="1" as="geometry">
            <mxPoint x="50" as="sourcePoint" />
            <mxPoint x="50" y="10" as="targetPoint" />
          </mxGeometry>
        </mxCell>
        <mxCell id="XweZ4Oe21oGHiwXUeN7P-323" value="" style="endArrow=none;html=1;rounded=0;" parent="XweZ4Oe21oGHiwXUeN7P-328" edge="1">
          <mxGeometry width="50" height="50" relative="1" as="geometry">
            <mxPoint x="20" y="10" as="sourcePoint" />
            <mxPoint x="50" y="10" as="targetPoint" />
          </mxGeometry>
        </mxCell>
        <mxCell id="XweZ4Oe21oGHiwXUeN7P-324" value="" style="ellipse;whiteSpace=wrap;html=1;aspect=fixed;container=0;strokeColor=light-dark(#000000,#000000);" parent="XweZ4Oe21oGHiwXUeN7P-328" vertex="1">
          <mxGeometry x="40" y="20" width="10" height="10" as="geometry" />
        </mxCell>
        <mxCell id="XweZ4Oe21oGHiwXUeN7P-325" value="" style="ellipse;whiteSpace=wrap;html=1;aspect=fixed;container=0;strokeColor=light-dark(#000000,#000000);" parent="XweZ4Oe21oGHiwXUeN7P-328" vertex="1">
          <mxGeometry x="20" y="20" width="10" height="10" as="geometry" />
        </mxCell>
        <mxCell id="XweZ4Oe21oGHiwXUeN7P-329" value="" style="group;rotation=90;strokeWidth=1.9685;" parent="1" vertex="1" connectable="0">
          <mxGeometry x="548" y="325" width="70" height="40" as="geometry" />
        </mxCell>
        <mxCell id="XweZ4Oe21oGHiwXUeN7P-330" value="" style="rounded=0;whiteSpace=wrap;html=1;strokeColor=#6F0000;fillColor=#a20025;rotation=90;fontColor=#ffffff;" parent="XweZ4Oe21oGHiwXUeN7P-329" vertex="1">
          <mxGeometry x="40" y="40" width="20" height="10" as="geometry" />
        </mxCell>
        <mxCell id="XweZ4Oe21oGHiwXUeN7P-331" value="" style="rounded=0;whiteSpace=wrap;html=1;strokeColor=#6F0000;fillColor=#a20025;rotation=90;fontColor=#ffffff;" parent="XweZ4Oe21oGHiwXUeN7P-329" vertex="1">
          <mxGeometry x="40" y="-10" width="20" height="10" as="geometry" />
        </mxCell>
        <mxCell id="XweZ4Oe21oGHiwXUeN7P-332" value="" style="group;fillColor=#a20025;container=0;rotation=90;fontColor=#ffffff;strokeColor=#6F0000;" parent="XweZ4Oe21oGHiwXUeN7P-329" vertex="1" connectable="0">
          <mxGeometry x="-5" y="5" width="70" height="30" as="geometry" />
        </mxCell>
        <mxCell id="XweZ4Oe21oGHiwXUeN7P-333" value="" style="endArrow=none;html=1;rounded=0;" parent="XweZ4Oe21oGHiwXUeN7P-329" edge="1">
          <mxGeometry width="50" height="50" relative="1" as="geometry">
            <mxPoint x="15" y="-15" as="sourcePoint" />
            <mxPoint x="55" y="-15" as="targetPoint" />
          </mxGeometry>
        </mxCell>
        <mxCell id="XweZ4Oe21oGHiwXUeN7P-334" value="" style="endArrow=none;html=1;rounded=0;" parent="XweZ4Oe21oGHiwXUeN7P-329" edge="1">
          <mxGeometry width="50" height="50" relative="1" as="geometry">
            <mxPoint x="15" y="-15" as="sourcePoint" />
            <mxPoint x="15" y="55" as="targetPoint" />
          </mxGeometry>
        </mxCell>
        <mxCell id="XweZ4Oe21oGHiwXUeN7P-335" value="" style="endArrow=none;html=1;rounded=0;" parent="XweZ4Oe21oGHiwXUeN7P-329" edge="1">
          <mxGeometry width="50" height="50" relative="1" as="geometry">
            <mxPoint x="15" y="55" as="sourcePoint" />
            <mxPoint x="55" y="55" as="targetPoint" />
          </mxGeometry>
        </mxCell>
        <mxCell id="XweZ4Oe21oGHiwXUeN7P-336" value="" style="endArrow=none;html=1;rounded=0;" parent="XweZ4Oe21oGHiwXUeN7P-329" edge="1">
          <mxGeometry width="50" height="50" relative="1" as="geometry">
            <mxPoint x="55" y="-15" as="sourcePoint" />
            <mxPoint x="55" y="5" as="targetPoint" />
          </mxGeometry>
        </mxCell>
        <mxCell id="XweZ4Oe21oGHiwXUeN7P-337" value="" style="endArrow=none;html=1;rounded=0;" parent="XweZ4Oe21oGHiwXUeN7P-329" edge="1">
          <mxGeometry width="50" height="50" relative="1" as="geometry">
            <mxPoint x="55" y="55" as="sourcePoint" />
            <mxPoint x="55" y="35" as="targetPoint" />
          </mxGeometry>
        </mxCell>
        <mxCell id="XweZ4Oe21oGHiwXUeN7P-338" value="" style="endArrow=none;html=1;rounded=0;" parent="XweZ4Oe21oGHiwXUeN7P-329" edge="1">
          <mxGeometry width="50" height="50" relative="1" as="geometry">
            <mxPoint x="55" y="5" as="sourcePoint" />
            <mxPoint x="45" y="5" as="targetPoint" />
          </mxGeometry>
        </mxCell>
        <mxCell id="XweZ4Oe21oGHiwXUeN7P-339" value="" style="endArrow=none;html=1;rounded=0;" parent="XweZ4Oe21oGHiwXUeN7P-329" edge="1">
          <mxGeometry width="50" height="50" relative="1" as="geometry">
            <mxPoint x="55" y="35" as="sourcePoint" />
            <mxPoint x="45" y="35" as="targetPoint" />
          </mxGeometry>
        </mxCell>
        <mxCell id="XweZ4Oe21oGHiwXUeN7P-340" value="" style="endArrow=none;html=1;rounded=0;" parent="XweZ4Oe21oGHiwXUeN7P-329" edge="1">
          <mxGeometry width="50" height="50" relative="1" as="geometry">
            <mxPoint x="45" y="5" as="sourcePoint" />
            <mxPoint x="45" y="35" as="targetPoint" />
          </mxGeometry>
        </mxCell>
        <mxCell id="XweZ4Oe21oGHiwXUeN7P-341" value="" style="ellipse;whiteSpace=wrap;html=1;aspect=fixed;container=0;strokeColor=light-dark(#000000,#000000);rotation=90;" parent="XweZ4Oe21oGHiwXUeN7P-329" vertex="1">
          <mxGeometry x="25" y="25" width="10" height="10" as="geometry" />
        </mxCell>
        <mxCell id="XweZ4Oe21oGHiwXUeN7P-342" value="" style="ellipse;whiteSpace=wrap;html=1;aspect=fixed;container=0;strokeColor=light-dark(#000000,#000000);rotation=90;" parent="XweZ4Oe21oGHiwXUeN7P-329" vertex="1">
          <mxGeometry x="25" y="5" width="10" height="10" as="geometry" />
        </mxCell>
        <mxCell id="XweZ4Oe21oGHiwXUeN7P-344" value="" style="group;rotation=90;strokeWidth=1.9685;" parent="1" vertex="1" connectable="0">
          <mxGeometry x="548" y="405" width="70" height="40" as="geometry" />
        </mxCell>
        <mxCell id="XweZ4Oe21oGHiwXUeN7P-345" value="" style="rounded=0;whiteSpace=wrap;html=1;strokeColor=#6F0000;fillColor=#a20025;rotation=90;fontColor=#ffffff;" parent="XweZ4Oe21oGHiwXUeN7P-344" vertex="1">
          <mxGeometry x="40" y="40" width="20" height="10" as="geometry" />
        </mxCell>
        <mxCell id="XweZ4Oe21oGHiwXUeN7P-346" value="" style="rounded=0;whiteSpace=wrap;html=1;strokeColor=#6F0000;fillColor=#a20025;rotation=90;fontColor=#ffffff;" parent="XweZ4Oe21oGHiwXUeN7P-344" vertex="1">
          <mxGeometry x="40" y="-10" width="20" height="10" as="geometry" />
        </mxCell>
        <mxCell id="XweZ4Oe21oGHiwXUeN7P-347" value="" style="group;fillColor=#a20025;container=0;rotation=90;fontColor=#ffffff;strokeColor=#6F0000;" parent="XweZ4Oe21oGHiwXUeN7P-344" vertex="1" connectable="0">
          <mxGeometry x="-5" y="5" width="70" height="30" as="geometry" />
        </mxCell>
        <mxCell id="XweZ4Oe21oGHiwXUeN7P-348" value="" style="endArrow=none;html=1;rounded=0;" parent="XweZ4Oe21oGHiwXUeN7P-344" edge="1">
          <mxGeometry width="50" height="50" relative="1" as="geometry">
            <mxPoint x="15" y="-15" as="sourcePoint" />
            <mxPoint x="55" y="-15" as="targetPoint" />
          </mxGeometry>
        </mxCell>
        <mxCell id="XweZ4Oe21oGHiwXUeN7P-349" value="" style="endArrow=none;html=1;rounded=0;" parent="XweZ4Oe21oGHiwXUeN7P-344" edge="1">
          <mxGeometry width="50" height="50" relative="1" as="geometry">
            <mxPoint x="15" y="-15" as="sourcePoint" />
            <mxPoint x="15" y="55" as="targetPoint" />
          </mxGeometry>
        </mxCell>
        <mxCell id="XweZ4Oe21oGHiwXUeN7P-350" value="" style="endArrow=none;html=1;rounded=0;" parent="XweZ4Oe21oGHiwXUeN7P-344" edge="1">
          <mxGeometry width="50" height="50" relative="1" as="geometry">
            <mxPoint x="15" y="55" as="sourcePoint" />
            <mxPoint x="55" y="55" as="targetPoint" />
          </mxGeometry>
        </mxCell>
        <mxCell id="XweZ4Oe21oGHiwXUeN7P-351" value="" style="endArrow=none;html=1;rounded=0;" parent="XweZ4Oe21oGHiwXUeN7P-344" edge="1">
          <mxGeometry width="50" height="50" relative="1" as="geometry">
            <mxPoint x="55" y="-15" as="sourcePoint" />
            <mxPoint x="55" y="5" as="targetPoint" />
          </mxGeometry>
        </mxCell>
        <mxCell id="XweZ4Oe21oGHiwXUeN7P-352" value="" style="endArrow=none;html=1;rounded=0;" parent="XweZ4Oe21oGHiwXUeN7P-344" edge="1">
          <mxGeometry width="50" height="50" relative="1" as="geometry">
            <mxPoint x="55" y="55" as="sourcePoint" />
            <mxPoint x="55" y="35" as="targetPoint" />
          </mxGeometry>
        </mxCell>
        <mxCell id="XweZ4Oe21oGHiwXUeN7P-353" value="" style="endArrow=none;html=1;rounded=0;" parent="XweZ4Oe21oGHiwXUeN7P-344" edge="1">
          <mxGeometry width="50" height="50" relative="1" as="geometry">
            <mxPoint x="55" y="5" as="sourcePoint" />
            <mxPoint x="45" y="5" as="targetPoint" />
          </mxGeometry>
        </mxCell>
        <mxCell id="XweZ4Oe21oGHiwXUeN7P-354" value="" style="endArrow=none;html=1;rounded=0;" parent="XweZ4Oe21oGHiwXUeN7P-344" edge="1">
          <mxGeometry width="50" height="50" relative="1" as="geometry">
            <mxPoint x="55" y="35" as="sourcePoint" />
            <mxPoint x="45" y="35" as="targetPoint" />
          </mxGeometry>
        </mxCell>
        <mxCell id="XweZ4Oe21oGHiwXUeN7P-355" value="" style="endArrow=none;html=1;rounded=0;" parent="XweZ4Oe21oGHiwXUeN7P-344" edge="1">
          <mxGeometry width="50" height="50" relative="1" as="geometry">
            <mxPoint x="45" y="5" as="sourcePoint" />
            <mxPoint x="45" y="35" as="targetPoint" />
          </mxGeometry>
        </mxCell>
        <mxCell id="XweZ4Oe21oGHiwXUeN7P-356" value="" style="ellipse;whiteSpace=wrap;html=1;aspect=fixed;container=0;strokeColor=light-dark(#000000,#000000);rotation=90;" parent="XweZ4Oe21oGHiwXUeN7P-344" vertex="1">
          <mxGeometry x="25" y="25" width="10" height="10" as="geometry" />
        </mxCell>
        <mxCell id="XweZ4Oe21oGHiwXUeN7P-357" value="" style="ellipse;whiteSpace=wrap;html=1;aspect=fixed;container=0;strokeColor=light-dark(#000000,#000000);rotation=90;" parent="XweZ4Oe21oGHiwXUeN7P-344" vertex="1">
          <mxGeometry x="25" y="5" width="10" height="10" as="geometry" />
        </mxCell>
        <mxCell id="XweZ4Oe21oGHiwXUeN7P-358" value="" style="endArrow=classic;html=1;rounded=0;strokeWidth=1.9685;entryX=0.507;entryY=-0.291;entryDx=0;entryDy=0;entryPerimeter=0;" parent="1" edge="1" target="XweZ4Oe21oGHiwXUeN7P-359">
          <mxGeometry width="50" height="50" relative="1" as="geometry">
            <mxPoint x="430" y="910" as="sourcePoint" />
            <mxPoint x="430" y="970" as="targetPoint" />
          </mxGeometry>
        </mxCell>
        <mxCell id="XweZ4Oe21oGHiwXUeN7P-359" value="&lt;font style=&quot;font-size: 20px;&quot; face=&quot;Times New Roman&quot;&gt;Joystick Slot&lt;/font&gt;" style="text;html=1;align=center;verticalAlign=middle;whiteSpace=wrap;rounded=0;" parent="1" vertex="1">
          <mxGeometry x="288" y="1000" width="280" height="30" as="geometry" />
        </mxCell>
        <mxCell id="XweZ4Oe21oGHiwXUeN7P-360" value="" style="endArrow=classic;html=1;rounded=0;" parent="1" edge="1">
          <mxGeometry width="50" height="50" relative="1" as="geometry">
            <mxPoint x="220" y="340" as="sourcePoint" />
            <mxPoint x="160" y="340" as="targetPoint" />
          </mxGeometry>
        </mxCell>
        <mxCell id="XweZ4Oe21oGHiwXUeN7P-361" value="&lt;font face=&quot;Times New Roman&quot; style=&quot;font-size: 20px;&quot;&gt;Button - B&lt;/font&gt;" style="text;html=1;align=center;verticalAlign=middle;whiteSpace=wrap;rounded=0;" parent="1" vertex="1">
          <mxGeometry x="60" y="375" width="100" height="30" as="geometry" />
        </mxCell>
        <mxCell id="XweZ4Oe21oGHiwXUeN7P-362" value="" style="endArrow=classic;html=1;rounded=0;" parent="1" edge="1">
          <mxGeometry width="50" height="50" relative="1" as="geometry">
            <mxPoint x="220" y="390" as="sourcePoint" />
            <mxPoint x="160" y="390" as="targetPoint" />
          </mxGeometry>
        </mxCell>
        <mxCell id="XweZ4Oe21oGHiwXUeN7P-363" value="" style="endArrow=classic;html=1;rounded=0;" parent="1" edge="1">
          <mxGeometry width="50" height="50" relative="1" as="geometry">
            <mxPoint x="220" y="440" as="sourcePoint" />
            <mxPoint x="160" y="440" as="targetPoint" />
          </mxGeometry>
        </mxCell>
        <mxCell id="XweZ4Oe21oGHiwXUeN7P-364" value="" style="endArrow=classic;html=1;rounded=0;" parent="1" edge="1">
          <mxGeometry width="50" height="50" relative="1" as="geometry">
            <mxPoint x="220" y="489.5" as="sourcePoint" />
            <mxPoint x="160" y="489.5" as="targetPoint" />
          </mxGeometry>
        </mxCell>
        <mxCell id="XweZ4Oe21oGHiwXUeN7P-367" value="&lt;font face=&quot;Times New Roman&quot; style=&quot;font-size: 20px;&quot;&gt;Button - A&lt;/font&gt;" style="text;html=1;align=center;verticalAlign=middle;whiteSpace=wrap;rounded=0;" parent="1" vertex="1">
          <mxGeometry x="60" y="325" width="100" height="30" as="geometry" />
        </mxCell>
        <mxCell id="XweZ4Oe21oGHiwXUeN7P-368" value="&lt;font face=&quot;Times New Roman&quot; style=&quot;font-size: 20px;&quot;&gt;Button - X&lt;/font&gt;" style="text;html=1;align=center;verticalAlign=middle;whiteSpace=wrap;rounded=0;" parent="1" vertex="1">
          <mxGeometry x="60" y="430" width="100" height="30" as="geometry" />
        </mxCell>
        <mxCell id="XweZ4Oe21oGHiwXUeN7P-369" value="&lt;font face=&quot;Times New Roman&quot; style=&quot;font-size: 20px;&quot;&gt;Button - Y&lt;/font&gt;" style="text;html=1;align=center;verticalAlign=middle;whiteSpace=wrap;rounded=0;" parent="1" vertex="1">
          <mxGeometry x="60" y="475" width="100" height="30" as="geometry" />
        </mxCell>
        <mxCell id="XweZ4Oe21oGHiwXUeN7P-370" value="&lt;font face=&quot;Times New Roman&quot; style=&quot;font-size: 20px;&quot;&gt;Select&lt;/font&gt;" style="text;html=1;align=center;verticalAlign=middle;whiteSpace=wrap;rounded=0;" parent="1" vertex="1">
          <mxGeometry x="60" y="725" width="100" height="30" as="geometry" />
        </mxCell>
        <mxCell id="XweZ4Oe21oGHiwXUeN7P-371" value="&lt;font face=&quot;Times New Roman&quot; style=&quot;font-size: 20px;&quot;&gt;Start&lt;/font&gt;" style="text;html=1;align=center;verticalAlign=middle;whiteSpace=wrap;rounded=0;" parent="1" vertex="1">
          <mxGeometry x="60" y="775" width="100" height="30" as="geometry" />
        </mxCell>
        <mxCell id="XweZ4Oe21oGHiwXUeN7P-372" value="" style="endArrow=classic;html=1;rounded=0;" parent="1" edge="1">
          <mxGeometry width="50" height="50" relative="1" as="geometry">
            <mxPoint x="220" y="790" as="sourcePoint" />
            <mxPoint x="160" y="790" as="targetPoint" />
          </mxGeometry>
        </mxCell>
        <mxCell id="XweZ4Oe21oGHiwXUeN7P-373" value="" style="endArrow=classic;html=1;rounded=0;" parent="1" edge="1">
          <mxGeometry width="50" height="50" relative="1" as="geometry">
            <mxPoint x="220" y="739.5" as="sourcePoint" />
            <mxPoint x="160" y="739.5" as="targetPoint" />
          </mxGeometry>
        </mxCell>
        <mxCell id="XweZ4Oe21oGHiwXUeN7P-374" style="edgeStyle=orthogonalEdgeStyle;rounded=0;orthogonalLoop=1;jettySize=auto;html=1;exitX=0.5;exitY=1;exitDx=0;exitDy=0;" parent="1" source="XweZ4Oe21oGHiwXUeN7P-370" target="XweZ4Oe21oGHiwXUeN7P-370" edge="1">
          <mxGeometry relative="1" as="geometry" />
        </mxCell>
        <mxCell id="xJ8gn2ujqiqmcjMcjbj_-2" value="" style="endArrow=none;html=1;rounded=0;" edge="1" parent="1">
          <mxGeometry width="50" height="50" relative="1" as="geometry">
            <mxPoint x="583" y="470" as="sourcePoint" />
            <mxPoint x="603" y="470" as="targetPoint" />
          </mxGeometry>
        </mxCell>
      </root>
    </mxGraphModel>
  </diagram>
</mxfile>
